<?xml version="1.0" encoding="UTF-8"?>
<svg width="25px" height="25px" viewBox="0 0 25 25" version="1.1" xmlns="http://www.w3.org/2000/svg" xmlns:xlink="http://www.w3.org/1999/xlink">
    <!-- Generator: Sketch 50.2 (55047) - http://www.bohemiancoding.com/sketch -->
    <title>Confirm button</title>
    <desc>Created with Sketch.</desc>
    <defs></defs>
    <g id="Page-1" stroke="none" stroke-width="1" fill="none" fill-rule="evenodd">
        <g id="LS/Atoms" transform="translate(-221.000000, -248.000000)" fill-rule="nonzero">
            <g id="Confirm-button" transform="translate(221.000000, 248.000000)">
                <circle id="Oval" fill="#3DB39E" cx="12.5" cy="12.5" r="12.5"></circle>
                <path d="M24.783539,5.30970943 L22.6094029,3.21083438 C22.3207883,2.92972187 21.8397964,2.92972187 21.5319831,3.21083438 L12.2390597,12.5620124 L8.21789724,8.70161637 C7.92928257,8.42050386 7.44829069,8.42050386 7.14047738,8.70161637 L5.216461,10.5568733 C4.92784633,10.8379858 4.92784633,11.3064749 5.216461,11.5875874 L11.6426317,17.7904291 C11.8158103,17.9591061 12.0466825,18.0153001 12.2775547,17.9965529 C12.5084269,18.0153001 12.7392991,17.9590585 12.9124777,17.7904291 L24.783539,6.35912317 C25.0721537,6.05926348 25.0721537,5.59077436 24.783539,5.30970943 Z" id="Shape" fill="#F2F1EF"></path>
                <path d="M12.9008337,17.7902233 L24.7833305,6.35029156 C25.0722232,6.06896693 25.0722232,5.60012429 24.7833305,5.31879966 L24.4366886,5 L12.2460331,16.6649724 L5.50556221,10.2698846 L5.21666952,10.5512092 C4.92777683,10.8325338 4.92777683,11.3013765 5.21666952,11.5827011 L11.6490306,17.790271 C11.822376,17.9590753 12.0534706,18.0153116 12.2845652,17.9965503 C12.4963937,18.015264 12.7274883,17.9590276 12.9008337,17.7902233 Z" id="Shape" fill="#E6E5E3"></path>
            </g>
        </g>
    </g>
</svg>