<svg version="1.1" xmlns="http://www.w3.org/2000/svg" xmlns:xlink="http://www.w3.org/1999/xlink" x="0px" y="0px" viewBox="0 0 1000 1000" enable-background="new 0 0 1000 1000" xml:space="preserve">
<g><path d="M699.1,454.1H545.9V300.9c0-25.4-20.6-45.9-45.9-45.9c-25.4,0-45.9,20.6-45.9,45.9v153.1H300.9c-25.4,0-45.9,20.6-45.9,45.9c0,25.4,20.6,45.9,45.9,45.9h153.1v153.1c0,25.4,20.6,45.9,45.9,45.9c25.4,0,45.9-20.6,45.9-45.9V545.9h153.1c25.4,0,45.9-20.6,45.9-45.9C745,474.6,724.4,454.1,699.1,454.1z M500,10C229.4,10,10,229.4,10,500c0,270.6,219.4,490,490,490c270.6,0,490-219.4,490-490C990,229.4,770.6,10,500,10z M500,898.1c-219.9,0-398.1-178.3-398.1-398.1c0-219.9,178.3-398.1,398.1-398.1S898.1,280.1,898.1,500S719.9,898.1,500,898.1z"/></g>
</svg>
