<svg width="400" height="501.5873015873015" xmlns="http://www.w3.org/2000/svg">

 <g>
  <title>background</title>
  <rect fill="none" id="canvas_background" height="402" width="582" y="-1" x="-1"/>
 </g>
 <g>
  <title>Layer 1</title>
  <path stroke="null" id="path_0" d="m25.735294,432.352936l19.485294,31.933392l45.220588,6.942041l220.220589,0.462803l38.235294,-8.793253l22.426471,-22.214531l1.838235,-6.71064l0.735294,-1.619809" stroke-opacity="null" stroke-width="null" fill="none"/>
  <path stroke="null" id="path_1" d="m26.102941,432.516656l-2.941176,-25.899002l350,0l-0.367647,26.102933" stroke-opacity="null" stroke-width="null" fill="none"/>
  <path id="path_2" d="m78.308824,380.514702" opacity="0.5" fill-opacity="null" stroke-opacity="null" stroke-width="null" stroke="null" fill="#cccccc"/>
  <path stroke="null" id="path_3" d="m26.102941,406.781362l-2.941176,-25.899001l350,0l-0.367647,26.102932" stroke-opacity="null" stroke-width="null" fill="none"/>
  <path transform="rotate(-180 198.16175842285156,368.19854736328125) " stroke="null" id="path_4" d="m26.102941,381.046068l-2.941176,-25.899001l350,0l-0.367647,26.102932" stroke-opacity="null" stroke-width="null" fill="none"/>
  <path id="path_5" d="m38.235984,329.802516l-11.569431,25.490087l339.21424,0c-2.614368,-8.365977 -5.228735,-16.731955 -7.843103,-25.097932" stroke-opacity="null" stroke-width="null" stroke="null" fill="none"/>
  <path stroke="null" id="path_6" d="m47.411226,306.273204l-10.940803,25.490087l320.782956,0c-2.472316,-8.365977 -4.94463,-16.731955 -7.416946,-25.097932" stroke-opacity="null" stroke-width="null" fill="none"/>
  <path stroke="null" id="path_7" d="m62.392833,285.881137l-9.844048,21.176365l288.626223,0c-2.22448,-6.950191 -4.448959,-13.900384 -6.673438,-20.850575" stroke-opacity="null" stroke-width="null" fill="none"/>
  <path stroke="null" id="path_8" d="m86.537603,244.704839l-25.753543,41.960607l271.763542,0c-8.51442,-13.856151 -17.02884,-27.712301 -25.54326,-41.568451" stroke-opacity="null" stroke-width="null" fill="none"/>
  <path stroke="null" id="path_9" d="m110.110841,210.979492l-20.699457,36.078278l218.430443,0c-6.843481,-11.9137 -13.686961,-23.827398 -20.530442,-35.741097" stroke-opacity="null" stroke-width="null" fill="none"/>
  <path stroke="null" id="svg_28" d="m125.366699,156.077763l-17.131867,57.646815l180.783546,0c-5.663994,-19.036021 -11.327988,-38.072039 -16.991982,-57.108059" stroke-opacity="null" stroke-width="null" fill="none"/>
  <g id="svgg">
   <path fill-rule="evenodd" fill="#000000" d="m112.518155,11.163c-0.11,0.42 -0.543,0.853 -0.963,0.963c-0.42,0.109 -0.763,0.486 -0.763,0.837c0,0.35 -0.36,0.997 -0.8,1.437c-0.44,0.44 -0.8,1.16 -0.8,1.6c0,0.533 -0.267,0.8 -0.8,0.8c-0.497,0 -0.8,0.267 -0.8,0.704c0,0.387 -0.38,0.941 -0.844,1.231c-1.519,0.948 -0.374,4.065 1.493,4.065c0.684,0 0.951,0.224 0.951,0.8c0,0.533 0.267,0.8 0.8,0.8c0.465,0 0.8,0.267 0.8,0.637c0,0.351 0.354,0.73 0.787,0.844c0.432,0.113 0.895,0.546 1.027,0.962c0.132,0.416 0.491,0.757 0.799,0.757c0.307,0 0.752,0.36 0.987,0.8c0.235,0.44 0.742,0.8 1.126,0.8c0.383,0 0.957,0.36 1.274,0.8c0.317,0.44 0.897,0.8 1.288,0.8c0.445,0 0.712,0.3 0.712,0.8c0,0.533 0.267,0.8 0.8,0.8c0.533,0 0.8,0.267 0.8,0.8c0,0.533 0.267,0.8 0.8,0.8c0.533,0 0.8,0.267 0.8,0.8c0,0.533 0.267,0.8 0.8,0.8c0.533,0 0.8,0.267 0.8,0.8c0,0.533 0.267,0.8 0.8,0.8c0.533,0 0.8,0.267 0.8,0.8c0,0.533 0.267,0.8 0.8,0.8c0.5,0 0.8,0.267 0.8,0.712c0,0.391 0.36,0.971 0.8,1.288c0.44,0.317 0.8,1.004 0.8,1.526c0,0.612 0.284,1.023 0.8,1.158c0.606,0.159 0.8,0.546 0.8,1.6c0,1.054 0.194,1.441 0.8,1.6c0.677,0.177 0.8,0.546 0.8,2.4c0,1.854 0.123,2.223 0.8,2.4c0.72,0.188 0.8,0.546 0.8,3.567c0,2.862 0.118,3.458 0.8,4.042c0.727,0.623 0.8,1.18 0.8,6.142c0,4.851 0.089,5.57 0.8,6.474c1.144,1.455 1.236,21.31 0.108,23.53c-0.563,1.109 -0.719,2.765 -0.844,8.95c-0.131,6.452 -0.252,7.66 -0.809,8.067c-0.533,0.389 -0.68,1.415 -0.788,5.514c-0.118,4.478 -0.217,5.082 -0.9,5.447c-0.671,0.36 -0.767,0.873 -0.767,4.108c0,3.202 -0.107,3.789 -0.8,4.382c-0.656,0.562 -0.8,1.18 -0.8,3.427c0,2.234 -0.148,2.876 -0.8,3.466c-0.619,0.56 -0.8,1.232 -0.8,2.966c0,1.808 -0.155,2.338 -0.8,2.741c-0.626,0.391 -0.8,0.933 -0.8,2.496c0,1.434 -0.156,1.997 -0.553,1.997c-0.619,0 -1.033,1.194 -1.042,3.004c-0.003,0.766 -0.296,1.385 -0.805,1.703c-0.622,0.389 -0.8,0.933 -0.8,2.45c0,1.613 -0.138,1.986 -0.8,2.159c-0.68,0.178 -0.8,0.546 -0.8,2.447c0,1.97 -0.095,2.237 -0.8,2.237c-0.663,0 -0.8,0.267 -0.8,1.553c0,1.217 -0.173,1.599 -0.8,1.763c-0.583,0.152 -0.8,0.546 -0.8,1.447c0,0.704 -0.345,1.582 -0.8,2.037c-0.525,0.525 -0.8,1.333 -0.8,2.353c0,1.217 -0.173,1.599 -0.8,1.763c-0.609,0.159 -0.8,0.546 -0.8,1.62c0,1.059 -0.199,1.473 -0.8,1.664c-0.593,0.188 -0.8,0.605 -0.8,1.613c0,0.949 -0.241,1.488 -0.8,1.787c-0.513,0.274 -0.8,0.838 -0.8,1.567c0,0.803 -0.236,1.201 -0.8,1.349c-0.606,0.159 -0.8,0.546 -0.8,1.6c0,1.054 -0.194,1.441 -0.8,1.6c-0.606,0.159 -0.8,0.546 -0.8,1.6c0,1.054 -0.194,1.441 -0.8,1.6c-0.606,0.159 -0.8,0.546 -0.8,1.6c0,1.054 -0.194,1.441 -0.8,1.6c-0.606,0.159 -0.8,0.546 -0.8,1.6c0,1.054 -0.194,1.441 -0.8,1.6c-0.613,0.16 -0.8,0.546 -0.8,1.647c0,1.17 -0.148,1.437 -0.8,1.437c-0.533,0 -0.8,0.267 -0.8,0.8c0,0.44 -0.36,1.16 -0.8,1.6c-0.44,0.44 -0.8,1.141 -0.8,1.557c0,0.417 -0.26,0.857 -0.578,0.979c-0.318,0.122 -0.698,0.861 -0.844,1.643c-0.153,0.811 -0.503,1.421 -0.818,1.421c-0.331,0 -0.65,0.624 -0.801,1.565c-0.17,1.066 -0.491,1.628 -1.005,1.763c-0.479,0.125 -0.754,0.553 -0.754,1.173c0,0.536 -0.36,1.301 -0.8,1.699c-0.44,0.398 -0.8,0.947 -0.8,1.219c0,0.273 -0.247,0.59 -0.549,0.706c-0.301,0.116 -0.676,0.72 -0.832,1.343c-0.156,0.622 -0.629,1.454 -1.051,1.848c-0.423,0.393 -0.768,1.115 -0.768,1.603c0,0.489 -0.36,1.113 -0.8,1.388c-0.44,0.275 -0.8,0.749 -0.8,1.054c0,0.304 -0.26,0.653 -0.578,0.775c-0.318,0.122 -0.698,0.861 -0.844,1.643c-0.154,0.818 -0.503,1.421 -0.823,1.421c-0.368,0 -0.555,0.472 -0.555,1.4c0,1.133 -0.152,1.4 -0.8,1.4c-0.587,0 -0.8,0.267 -0.8,1c0,0.588 -0.23,1 -0.557,1c-0.603,0 -1.043,0.838 -1.043,1.986c0,0.396 -0.36,0.815 -0.8,0.93c-0.613,0.16 -0.8,0.546 -0.8,1.647c0,1.17 -0.148,1.437 -0.8,1.437c-0.529,0 -0.8,0.267 -0.8,0.786c0,0.432 -0.36,0.979 -0.8,1.214c-0.524,0.28 -0.8,0.838 -0.8,1.614c0,0.919 -0.18,1.186 -0.8,1.186c-0.667,0 -0.8,0.267 -0.8,1.6c0,1.333 -0.133,1.6 -0.8,1.6c-0.497,0 -0.8,0.267 -0.8,0.704c0,0.387 -0.36,0.928 -0.8,1.203c-0.499,0.312 -0.8,0.933 -0.8,1.65c0,0.813 -0.234,1.211 -0.8,1.359c-0.613,0.16 -0.8,0.546 -0.8,1.647c0,1.17 -0.148,1.437 -0.8,1.437c-0.533,0 -0.8,0.267 -0.8,0.8c0,0.44 -0.251,0.8 -0.557,0.8c-0.645,0 -1.043,0.852 -1.043,2.233c0,0.7 -0.221,0.967 -0.8,0.967c-0.608,0 -0.8,0.267 -0.8,1.112c0,0.653 -0.33,1.349 -0.8,1.688c-0.44,0.317 -0.8,0.876 -0.8,1.242c0,0.365 -0.36,0.759 -0.8,0.874c-0.578,0.151 -0.8,0.546 -0.8,1.42c0,0.859 -0.232,1.284 -0.8,1.464c-0.588,0.187 -0.8,0.605 -0.8,1.58c0,0.99 -0.203,1.38 -0.8,1.536c-0.479,0.125 -0.8,0.546 -0.8,1.047c0,0.466 -0.258,0.837 -0.582,0.837c-0.345,0 -0.686,0.554 -0.837,1.363c-0.163,0.869 -0.533,1.436 -1.019,1.563c-0.565,0.148 -0.762,0.558 -0.762,1.59c0,1.054 -0.194,1.441 -0.8,1.6c-0.44,0.115 -0.8,0.496 -0.8,0.847c0,0.35 -0.36,0.997 -0.8,1.437c-0.44,0.44 -0.8,1.117 -0.8,1.504c0,0.387 -0.36,0.928 -0.8,1.203c-0.499,0.312 -0.8,0.933 -0.8,1.65c0,0.813 -0.234,1.211 -0.8,1.359c-0.606,0.159 -0.8,0.546 -0.8,1.6c0,1.054 -0.194,1.441 -0.8,1.6c-0.44,0.115 -0.8,0.513 -0.8,0.883c0,0.371 -0.36,1.132 -0.8,1.692c-0.44,0.559 -0.8,1.243 -0.8,1.52c0,0.277 -0.26,0.603 -0.578,0.725c-0.318,0.122 -0.698,0.861 -0.844,1.643c-0.153,0.811 -0.503,1.421 -0.818,1.421c-0.333,0 -0.652,0.632 -0.806,1.6c-0.153,0.957 -0.475,1.6 -0.8,1.6c-0.326,0 -0.647,0.643 -0.8,1.6c-0.143,0.889 -0.481,1.6 -0.762,1.6c-0.598,0 -0.992,0.886 -0.992,2.233c0,0.56 -0.235,0.967 -0.557,0.967c-0.594,0 -1.043,0.834 -1.043,1.936c0,0.37 -0.36,0.896 -0.8,1.171c-0.5,0.312 -0.8,0.933 -0.8,1.654c0,0.656 -0.259,1.253 -0.6,1.384c-0.374,0.143 -0.6,0.753 -0.6,1.615c0,1.035 -0.203,1.45 -0.8,1.64c-0.601,0.191 -0.8,0.605 -0.8,1.664c0,1.074 -0.191,1.461 -0.8,1.62c-0.597,0.156 -0.8,0.546 -0.8,1.536c0,0.975 -0.212,1.393 -0.8,1.58c-0.593,0.188 -0.8,0.605 -0.8,1.613c0,0.949 -0.241,1.488 -0.8,1.787c-0.546,0.292 -0.8,0.838 -0.8,1.718c0,0.856 -0.269,1.457 -0.8,1.789c-0.602,0.376 -0.8,0.933 -0.8,2.25c0,1.413 -0.154,1.79 -0.8,1.959c-0.613,0.16 -0.8,0.546 -0.8,1.647c0,0.904 -0.297,1.734 -0.8,2.237c-0.525,0.525 -0.8,1.333 -0.8,2.353c0,1.217 -0.173,1.599 -0.8,1.763c-0.68,0.178 -0.8,0.546 -0.8,2.447c0,1.97 -0.095,2.237 -0.8,2.237c-0.668,0 -0.8,0.267 -0.8,1.617c0,1.064 -0.274,1.91 -0.8,2.475c-0.587,0.63 -0.8,1.412 -0.8,2.937c0,1.741 -0.13,2.112 -0.8,2.287c-0.69,0.18 -0.8,0.546 -0.8,2.647c0,1.816 -0.142,2.437 -0.557,2.437c-0.796,0 -1.043,0.908 -1.043,3.833c0,1.927 -0.139,2.567 -0.557,2.567c-0.826,0 -1.043,0.92 -1.043,4.419c0,2.743 -0.104,3.208 -0.8,3.581c-1.256,0.672 -1.256,41.308 0,42.093c0.647,0.404 0.8,0.933 0.8,2.771c0,2.636 0.265,3.536 1.043,3.536c0.41,0 0.557,0.592 0.557,2.237c0,1.901 0.12,2.269 0.8,2.447c0.641,0.168 0.8,0.546 0.8,1.901c0,1.183 0.24,1.908 0.8,2.415c0.505,0.457 0.8,1.232 0.8,2.099c0,1.039 0.196,1.427 0.8,1.585c0.627,0.164 0.8,0.546 0.8,1.763c0,1.286 0.137,1.553 0.8,1.553c0.652,0 0.8,0.267 0.8,1.437c0,1.101 0.187,1.487 0.8,1.647c0.606,0.159 0.8,0.546 0.8,1.6c0,1.054 0.194,1.441 0.8,1.6c0.443,0.116 0.8,0.546 0.8,0.963c0,0.486 0.283,0.753 0.8,0.753c0.652,0 0.8,0.267 0.8,1.437c0,1.101 0.187,1.487 0.8,1.647c0.443,0.116 0.8,0.546 0.8,0.963c0,0.486 0.283,0.753 0.8,0.753c0.533,0 0.8,0.267 0.8,0.8c0,0.44 0.36,1.16 0.8,1.6c0.44,0.44 0.8,1.07 0.8,1.4c0,0.33 0.274,0.6 0.61,0.6c0.335,0 0.781,0.45 0.99,1c0.209,0.55 0.634,1 0.943,1c0.31,0 0.658,0.36 0.773,0.8c0.115,0.44 0.496,0.8 0.847,0.8c0.35,0 0.637,0.258 0.637,0.573c0,0.315 0.391,0.697 0.869,0.849c0.478,0.152 1.232,0.614 1.676,1.027c0.443,0.413 1.021,0.751 1.284,0.751c0.263,0 0.572,0.36 0.687,0.8c0.125,0.479 0.546,0.8 1.047,0.8c0.46,0 0.837,0.251 0.837,0.557c0,0.638 0.849,1.043 2.186,1.043c0.584,0 0.997,0.292 1.13,0.8c0.141,0.541 0.546,0.8 1.247,0.8c0.57,0 1.397,0.36 1.837,0.8c0.444,0.444 1.333,0.8 2,0.8c0.752,0 1.2,0.206 1.2,0.55c0,0.548 1.648,1.05 3.45,1.05c0.565,0 0.95,0.236 0.95,0.582c0,0.361 0.568,0.676 1.5,0.831c1.632,0.271 1.814,0.337 3.3,1.197c0.55,0.318 1.79,0.581 2.756,0.584c1.152,0.004 1.919,0.229 2.23,0.654c0.331,0.453 1.339,0.711 3.344,0.854c1.907,0.137 2.87,0.372 2.87,0.702c0,0.597 1.789,0.996 4.464,0.996c1.174,0 2.381,0.273 3.001,0.679c0.714,0.469 2.164,0.733 4.667,0.853c2.334,0.112 3.826,0.369 4.178,0.721c0.403,0.403 1.831,0.547 5.422,0.547c4.442,0 4.92,0.071 5.375,0.8c0.471,0.753 0.933,0.8 7.896,0.8c6.864,0 7.455,0.058 8.197,0.8c1.263,1.263 158.411,1.263 159.493,0c0.638,-0.746 1.18,-0.8 7.993,-0.8c6.874,0 7.337,-0.047 7.807,-0.8c0.457,-0.732 0.933,-0.8 5.583,-0.8c3.904,0 5.159,-0.128 5.404,-0.552c0.226,-0.391 1.46,-0.601 4.197,-0.718c2.785,-0.118 4.081,-0.344 4.6,-0.799c0.475,-0.417 1.789,-0.699 3.836,-0.824c2.159,-0.131 3.261,-0.378 3.6,-0.809c0.318,-0.405 1.372,-0.678 3.041,-0.788c1.782,-0.118 2.702,-0.371 3.044,-0.839c0.317,-0.434 1.055,-0.671 2.086,-0.671c1.805,0 4.116,-0.696 4.116,-1.239c0,-0.199 0.405,-0.363 0.9,-0.366c1.483,-0.009 2.7,-0.456 2.7,-0.991c0,-0.311 0.767,-0.576 2.014,-0.696c1.128,-0.108 2.228,-0.463 2.5,-0.806c0.267,-0.337 1.161,-0.731 1.986,-0.876c0.926,-0.162 1.5,-0.485 1.5,-0.844c0,-0.349 0.388,-0.582 0.967,-0.582c1.381,0 2.233,-0.398 2.233,-1.043c0,-0.325 0.41,-0.557 0.984,-0.557c0.542,0 1.307,-0.331 1.7,-0.736c0.394,-0.405 1.031,-0.849 1.416,-0.987c0.385,-0.139 0.7,-0.528 0.7,-0.864c0,-0.337 0.32,-0.613 0.712,-0.613c0.391,0 0.971,-0.36 1.288,-0.8c0.317,-0.44 0.895,-0.8 1.285,-0.8c0.389,0 0.933,-0.36 1.208,-0.8c0.275,-0.44 0.732,-0.8 1.016,-0.8c0.284,0 0.628,-0.292 0.765,-0.648c0.136,-0.356 0.851,-1.25 1.587,-1.986c0.737,-0.737 1.339,-1.494 1.339,-1.683c0,-0.189 0.45,-0.766 1,-1.283c0.55,-0.517 1,-1.268 1,-1.67c0,-0.401 0.276,-0.73 0.613,-0.73c0.336,0 0.728,-0.315 0.869,-0.7c0.142,-0.385 0.489,-0.84 0.772,-1.011c0.282,-0.171 0.631,-0.936 0.774,-1.7c0.153,-0.811 0.497,-1.389 0.829,-1.389c0.312,0 0.684,-0.315 0.825,-0.7c0.142,-0.385 0.489,-0.84 0.772,-1.011c0.282,-0.171 0.631,-0.936 0.774,-1.7c0.148,-0.787 0.5,-1.389 0.812,-1.389c0.333,0 0.652,-0.632 0.806,-1.6c0.143,-0.889 0.481,-1.6 0.762,-1.6c0.598,0 0.992,-0.886 0.992,-2.233c0,-0.593 0.232,-0.967 0.6,-0.967c0.427,0 0.6,-0.435 0.6,-1.511c0,-1.016 0.262,-1.736 0.8,-2.196c0.58,-0.497 0.8,-1.18 0.8,-2.489c0,-1.537 0.118,-1.804 0.8,-1.804c0.709,0 0.8,-0.267 0.8,-2.353c0,-2.017 0.114,-2.384 0.8,-2.563c0.704,-0.184 0.8,-0.546 0.8,-3.02c0,-2.459 0.1,-2.842 0.8,-3.064c0.786,-0.25 0.8,-0.605 0.8,-21.013c0,-20.349 -0.016,-20.767 -0.8,-21.187c-0.708,-0.379 -0.8,-0.838 -0.8,-4c0,-3.162 -0.092,-3.621 -0.8,-4c-0.684,-0.366 -0.8,-0.838 -0.8,-3.252c0,-2.486 -0.095,-2.848 -0.8,-3.032c-0.687,-0.18 -0.8,-0.546 -0.8,-2.6c0,-2.054 -0.113,-2.42 -0.8,-2.6c-0.67,-0.175 -0.8,-0.546 -0.8,-2.286c0,-1.207 -0.246,-2.402 -0.587,-2.854c-0.323,-0.427 -0.593,-1.256 -0.6,-1.843c-0.018,-1.452 -0.397,-2.333 -1.005,-2.333c-0.317,0 -0.58,-0.771 -0.705,-2.067c-0.121,-1.263 -0.452,-2.253 -0.851,-2.544c-0.358,-0.263 -0.652,-1.018 -0.652,-1.679c0,-0.661 -0.36,-1.66 -0.8,-2.219c-0.44,-0.56 -0.802,-1.349 -0.805,-1.754c-0.011,-1.377 -0.487,-2.537 -1.042,-2.537c-0.346,0 -0.553,-0.442 -0.553,-1.181c0,-1.277 -0.742,-3.219 -1.229,-3.219c-0.165,0 -0.422,-0.72 -0.571,-1.6c-0.151,-0.896 -0.496,-1.6 -0.784,-1.6c-0.288,0 -0.623,-0.685 -0.763,-1.556c-0.136,-0.856 -0.52,-1.661 -0.851,-1.788c-0.331,-0.127 -0.602,-0.688 -0.602,-1.247c0,-0.559 -0.36,-1.325 -0.8,-1.702c-0.492,-0.421 -0.8,-1.18 -0.8,-1.969c0,-0.933 -0.219,-1.354 -0.8,-1.538c-0.591,-0.188 -0.8,-0.605 -0.8,-1.6c0,-0.995 -0.209,-1.412 -0.8,-1.6c-0.591,-0.188 -0.8,-0.605 -0.8,-1.6c0,-0.995 -0.209,-1.412 -0.8,-1.6c-0.568,-0.18 -0.8,-0.605 -0.8,-1.464c0,-0.874 -0.222,-1.269 -0.8,-1.42c-0.606,-0.159 -0.8,-0.546 -0.8,-1.6c0,-1.054 -0.194,-1.441 -0.8,-1.6c-0.606,-0.159 -0.8,-0.546 -0.8,-1.6c0,-1.054 -0.194,-1.441 -0.8,-1.6c-0.606,-0.159 -0.8,-0.546 -0.8,-1.6c0,-1.054 -0.194,-1.441 -0.8,-1.6c-0.566,-0.148 -0.8,-0.546 -0.8,-1.359c0,-0.717 -0.301,-1.338 -0.8,-1.65c-0.44,-0.275 -0.8,-0.816 -0.8,-1.203c0,-0.387 -0.36,-1.064 -0.8,-1.504c-0.44,-0.44 -0.8,-1.16 -0.8,-1.6c0,-0.533 -0.267,-0.8 -0.8,-0.8c-0.652,0 -0.8,-0.267 -0.8,-1.437c0,-1.101 -0.187,-1.487 -0.8,-1.647c-0.566,-0.148 -0.8,-0.546 -0.8,-1.359c0,-0.717 -0.301,-1.338 -0.8,-1.65c-0.44,-0.275 -0.8,-0.801 -0.8,-1.171c0,-1.102 -0.449,-1.936 -1.043,-1.936c-0.327,0 -0.557,-0.412 -0.557,-1c0,-0.733 -0.213,-1 -0.8,-1c-0.652,0 -0.8,-0.267 -0.8,-1.437c0,-1.101 -0.187,-1.487 -0.8,-1.647c-0.574,-0.15 -0.8,-0.546 -0.8,-1.4c0,-0.854 -0.226,-1.25 -0.8,-1.4c-0.518,-0.135 -0.8,-0.546 -0.8,-1.163c0,-0.686 -0.224,-0.953 -0.8,-0.953c-0.645,0 -0.8,-0.267 -0.8,-1.373c0,-1.022 -0.205,-1.438 -0.8,-1.627c-0.568,-0.18 -0.8,-0.605 -0.8,-1.464c0,-0.874 -0.222,-1.269 -0.8,-1.42c-0.44,-0.115 -0.8,-0.52 -0.8,-0.901c0,-0.38 -0.36,-1.017 -0.8,-1.415c-0.44,-0.398 -0.8,-1.146 -0.8,-1.662c0,-0.671 -0.227,-0.938 -0.8,-0.938c-0.652,0 -0.8,-0.267 -0.8,-1.437c0,-1.101 -0.187,-1.487 -0.8,-1.647c-0.443,-0.116 -0.8,-0.546 -0.8,-0.963c0,-0.414 -0.27,-0.753 -0.6,-0.753c-0.368,0 -0.6,-0.374 -0.6,-0.967c0,-1.351 -0.394,-2.233 -0.998,-2.233c-0.282,0 -0.631,-0.63 -0.776,-1.4c-0.144,-0.77 -0.439,-1.4 -0.654,-1.4c-0.216,0 -0.563,-0.45 -0.772,-1c-0.209,-0.55 -0.632,-1 -0.939,-1c-0.343,0 -0.658,-0.619 -0.815,-1.6c-0.154,-0.968 -0.473,-1.6 -0.806,-1.6c-0.313,0 -0.664,-0.605 -0.814,-1.4c-0.157,-0.838 -0.496,-1.4 -0.844,-1.4c-0.324,0 -0.582,-0.371 -0.582,-0.837c0,-0.501 -0.321,-0.922 -0.8,-1.047c-0.518,-0.135 -0.8,-0.546 -0.8,-1.163c0,-0.524 -0.355,-1.308 -0.79,-1.743c-0.434,-0.434 -0.907,-1.259 -1.051,-1.832c-0.144,-0.573 -0.509,-1.137 -0.81,-1.253c-0.302,-0.116 -0.549,-0.568 -0.549,-1.005c0,-0.458 -0.339,-0.883 -0.8,-1.004c-0.574,-0.15 -0.8,-0.546 -0.8,-1.4c0,-0.854 -0.226,-1.25 -0.8,-1.4c-0.518,-0.135 -0.8,-0.546 -0.8,-1.163c0,-0.524 -0.36,-1.313 -0.8,-1.753c-0.44,-0.44 -0.8,-1.087 -0.8,-1.437c0,-0.351 -0.36,-0.732 -0.8,-0.847c-0.564,-0.148 -0.8,-0.546 -0.8,-1.349c0,-0.729 -0.287,-1.293 -0.8,-1.567c-0.44,-0.235 -0.8,-0.767 -0.8,-1.181c0,-1.179 -0.434,-2.019 -1.043,-2.019c-0.306,0 -0.557,-0.317 -0.557,-0.704c0,-0.387 -0.36,-0.928 -0.8,-1.203c-0.51,-0.319 -0.8,-0.933 -0.8,-1.696c0,-0.93 -0.178,-1.197 -0.8,-1.197c-0.652,0 -0.8,-0.267 -0.8,-1.437c0,-1.101 -0.187,-1.487 -0.8,-1.647c-0.566,-0.148 -0.8,-0.546 -0.8,-1.359c0,-0.717 -0.301,-1.338 -0.8,-1.65c-0.44,-0.275 -0.8,-0.908 -0.8,-1.407c0,-0.499 -0.36,-1.216 -0.8,-1.593c-0.44,-0.377 -0.8,-1.005 -0.8,-1.396c0,-0.444 -0.3,-0.711 -0.8,-0.711c-0.667,0 -0.8,-0.267 -0.8,-1.6c0,-1.333 -0.133,-1.6 -0.8,-1.6c-0.652,0 -0.8,-0.267 -0.8,-1.437c0,-1.101 -0.187,-1.487 -0.8,-1.647c-0.606,-0.159 -0.8,-0.546 -0.8,-1.6c0,-1.054 -0.194,-1.441 -0.8,-1.6c-0.606,-0.159 -0.8,-0.546 -0.8,-1.6c0,-1.054 -0.194,-1.441 -0.8,-1.6c-0.606,-0.159 -0.8,-0.546 -0.8,-1.6c0,-1.054 -0.194,-1.441 -0.8,-1.6c-0.597,-0.156 -0.8,-0.546 -0.8,-1.536c0,-0.975 -0.212,-1.393 -0.8,-1.58c-0.591,-0.188 -0.8,-0.605 -0.8,-1.6c0,-0.995 -0.209,-1.412 -0.8,-1.6c-0.601,-0.191 -0.8,-0.605 -0.8,-1.664c0,-1.074 -0.191,-1.461 -0.8,-1.62c-0.646,-0.169 -0.8,-0.546 -0.8,-1.959c0,-1.317 -0.198,-1.874 -0.8,-2.25c-0.57,-0.356 -0.8,-0.933 -0.8,-2.003c0,-1.237 -0.142,-1.504 -0.8,-1.504c-0.667,0 -0.8,-0.267 -0.8,-1.6c0,-1.333 -0.133,-1.6 -0.8,-1.6c-0.702,0 -0.8,-0.267 -0.8,-2.18c0,-1.414 -0.191,-2.293 -0.543,-2.5c-0.299,-0.176 -0.638,-1.185 -0.754,-2.242c-0.115,-1.057 -0.48,-2.137 -0.809,-2.4c-0.33,-0.263 -0.699,-1.282 -0.821,-2.264c-0.121,-0.982 -0.502,-1.992 -0.846,-2.244c-0.345,-0.252 -0.627,-0.906 -0.627,-1.454c0,-1.23 -0.769,-3.516 -1.184,-3.516c-0.167,0 -0.405,-1.105 -0.528,-2.456c-0.122,-1.351 -0.452,-2.598 -0.734,-2.772c-0.294,-0.182 -0.635,-1.614 -0.804,-3.381c-0.164,-1.723 -0.547,-3.354 -0.875,-3.728c-0.382,-0.434 -0.644,-1.892 -0.76,-4.218c-0.128,-2.564 -0.347,-3.679 -0.786,-4c-0.462,-0.338 -0.658,-1.576 -0.816,-5.134c-0.149,-3.387 -0.388,-4.966 -0.86,-5.686c-0.495,-0.756 -0.655,-1.992 -0.663,-5.111c-0.013,-5.177 -0.657,-11.941 -1.187,-12.471c-0.615,-0.615 -0.543,-22.93 0.075,-23.136c0.536,-0.178 1.059,-4.508 1.097,-9.076c0.018,-2.182 0.201,-3.163 0.691,-3.704c0.466,-0.515 0.724,-1.728 0.857,-4.03c0.131,-2.246 0.377,-3.428 0.775,-3.719c0.321,-0.235 0.681,-1.297 0.801,-2.361c0.125,-1.105 0.536,-2.252 0.96,-2.676c0.407,-0.407 0.741,-1.191 0.741,-1.741c0,-0.597 0.229,-1 0.568,-1c0.313,0 0.689,-0.549 0.836,-1.219c0.147,-0.671 0.612,-1.434 1.032,-1.696c0.42,-0.263 0.764,-0.794 0.764,-1.181c0,-0.387 0.287,-0.704 0.637,-0.704c0.351,0 0.732,-0.36 0.847,-0.8c0.115,-0.44 0.475,-0.8 0.8,-0.8c0.325,0 0.685,-0.36 0.8,-0.8c0.115,-0.44 0.458,-0.8 0.763,-0.8c0.304,0 0.553,-0.36 0.553,-0.8c0,-0.533 0.267,-0.8 0.8,-0.8c0.533,0 0.8,-0.267 0.8,-0.8c0,-0.533 0.267,-0.8 0.8,-0.8c0.533,0 0.8,-0.267 0.8,-0.8c0,-0.511 0.267,-0.8 0.738,-0.8c0.406,0 1.064,-0.36 1.462,-0.8c0.398,-0.44 0.956,-0.8 1.239,-0.8c0.284,0 0.751,-0.327 1.038,-0.726c0.288,-0.4 0.838,-0.844 1.223,-0.988c0.385,-0.143 0.7,-0.537 0.7,-0.873c0,-0.346 0.348,-0.613 0.8,-0.613c0.533,0 0.8,-0.267 0.8,-0.8c0,-0.533 0.267,-0.8 0.8,-0.8c0.533,0 0.8,-0.267 0.8,-0.8c0,-0.582 0.267,-0.8 0.977,-0.8c1.924,0 3.193,-3.821 1.423,-4.284c-0.443,-0.116 -0.8,-0.546 -0.8,-0.963c0,-0.486 -0.283,-0.753 -0.8,-0.753c-0.583,0 -0.8,-0.267 -0.8,-0.984c0,-0.542 -0.331,-1.307 -0.736,-1.7c-0.405,-0.394 -0.849,-1.031 -0.987,-1.416c-0.139,-0.385 -0.507,-0.7 -0.818,-0.7c-0.311,0 -0.66,-0.36 -0.775,-0.8c-0.308,-1.18 -3.86,-1.18 -4.168,0c-0.116,0.443 -0.546,0.8 -0.963,0.8c-0.472,0 -0.753,0.282 -0.753,0.755c0,0.547 -0.387,0.829 -1.4,1.019c-0.77,0.144 -1.4,0.439 -1.4,0.654c0,0.216 -0.45,0.563 -1,0.772c-0.55,0.209 -1,0.655 -1,0.99c0,0.336 -0.287,0.61 -0.637,0.61c-0.351,0 -0.732,0.36 -0.847,0.8c-0.116,0.443 -0.546,0.8 -0.963,0.8c-0.486,0 -0.753,0.283 -0.753,0.8c0,0.533 -0.267,0.8 -0.8,0.8c-0.533,0 -0.8,0.267 -0.8,0.8c0,0.533 -0.267,0.8 -0.8,0.8c-0.533,0 -0.8,0.267 -0.8,0.8c0,0.533 -0.267,0.8 -0.8,0.8c-0.533,0 -0.8,0.267 -0.8,0.8c0,0.533 -0.267,0.8 -0.8,0.8c-0.533,0 -0.8,0.267 -0.8,0.8c0,0.44 -0.262,0.8 -0.582,0.8c-0.754,0 -2.618,1.864 -2.618,2.618c0,0.32 -0.36,0.582 -0.8,0.582c-0.533,0 -0.8,0.267 -0.8,0.8c0,0.533 -0.267,0.8 -0.8,0.8c-0.533,0 -0.8,0.267 -0.8,0.8c0,0.44 -0.251,0.8 -0.557,0.8c-0.607,0 -1.043,0.839 -1.043,2.006c0,0.407 -0.36,0.854 -0.8,0.994c-0.591,0.188 -0.8,0.605 -0.8,1.6c0,0.995 -0.209,1.412 -0.8,1.6c-0.595,0.189 -0.8,0.605 -0.8,1.627c0,0.84 -0.311,1.684 -0.8,2.173c-0.58,0.58 -0.8,1.333 -0.8,2.738c0,1.43 -0.21,2.128 -0.8,2.662c-0.67,0.607 -0.8,1.232 -0.8,3.862c0,1.726 -0.162,3.138 -0.361,3.138c-0.749,0 -1.239,2.662 -1.239,6.728c0,3.447 -0.127,4.349 -0.7,4.983c-1.047,1.156 -1.081,34.075 -0.036,34.839c0.563,0.412 0.685,1.508 0.8,7.201c0.118,5.836 0.228,6.782 0.836,7.226c0.593,0.433 0.7,1.182 0.7,4.913c0,3.796 0.11,4.542 0.8,5.419c0.659,0.838 0.8,1.623 0.8,4.454c0,2.904 0.124,3.561 0.8,4.237c0.636,0.636 0.8,1.333 0.8,3.397c0,2.163 0.133,2.68 0.8,3.096c0.647,0.404 0.8,0.933 0.8,2.771c0,2.636 0.265,3.536 1.043,3.536c0.408,0 0.557,0.584 0.557,2.186c0,1.776 0.15,2.266 0.8,2.614c0.638,0.342 0.8,0.838 0.8,2.452c0,1.686 0.133,2.058 0.8,2.232c0.647,0.169 0.8,0.546 0.8,1.963c0,1.22 0.243,1.996 0.8,2.553c0.495,0.495 0.8,1.333 0.8,2.2c0,0.867 0.305,1.705 0.8,2.2c0.503,0.503 0.8,1.333 0.8,2.237c0,1.101 0.187,1.487 0.8,1.647c0.627,0.164 0.8,0.546 0.8,1.763c0,1.286 0.137,1.553 0.8,1.553c0.682,0 0.8,0.267 0.8,1.804c0,1.309 0.22,1.992 0.8,2.489c0.506,0.433 0.8,1.18 0.8,2.033c0,1.012 0.2,1.401 0.8,1.558c0.606,0.159 0.8,0.546 0.8,1.6c0,1.054 0.194,1.441 0.8,1.6c0.606,0.159 0.8,0.546 0.8,1.6c0,1.054 0.194,1.441 0.8,1.6c0.606,0.159 0.8,0.546 0.8,1.6c0,1.054 0.194,1.441 0.8,1.6c0.597,0.156 0.8,0.546 0.8,1.536c0,0.975 0.212,1.393 0.8,1.58c0.591,0.188 0.8,0.605 0.8,1.6c0,0.995 0.209,1.412 0.8,1.6c0.591,0.188 0.8,0.605 0.8,1.6c0,0.995 0.209,1.412 0.8,1.6c0.588,0.187 0.8,0.605 0.8,1.58c0,0.99 0.203,1.38 0.8,1.536c0.589,0.154 0.8,0.546 0.8,1.484c0,0.938 0.211,1.33 0.8,1.484c0.519,0.136 0.8,0.546 0.8,1.167c0,0.526 0.36,1.265 0.8,1.642c0.44,0.377 0.8,0.984 0.8,1.349c0,0.366 0.36,0.759 0.8,0.874c0.613,0.16 0.8,0.546 0.8,1.647c0,1.17 0.148,1.437 0.8,1.437c0.649,0 0.8,0.267 0.8,1.413c0,0.842 0.226,1.499 0.561,1.627c0.308,0.119 0.678,0.842 0.822,1.609c0.144,0.766 0.521,1.493 0.839,1.615c0.318,0.122 0.578,0.444 0.578,0.717c0,0.272 0.339,0.802 0.754,1.177c0.415,0.376 0.86,1.214 0.99,1.862c0.13,0.649 0.49,1.18 0.801,1.18c0.33,0 0.676,0.584 0.829,1.4c0.144,0.77 0.432,1.4 0.639,1.4c0.207,0 0.66,0.585 1.007,1.3c1.66,3.423 1.961,3.9 2.452,3.9c0.297,0 0.528,0.439 0.528,1c0,0.55 0.342,1.342 0.761,1.761c0.418,0.418 0.875,1.122 1.015,1.563c0.14,0.442 0.518,1.022 0.839,1.289c0.322,0.267 0.585,0.811 0.585,1.209c0,0.398 0.36,0.838 0.8,0.978c0.568,0.18 0.8,0.605 0.8,1.464c0,0.874 0.222,1.269 0.8,1.42c0.44,0.115 0.8,0.524 0.8,0.909c0,0.384 0.36,1.157 0.8,1.716c0.44,0.56 0.8,1.292 0.8,1.627c0,0.336 0.36,0.724 0.8,0.864c0.44,0.14 0.8,0.587 0.8,0.994c0,1.167 0.436,2.006 1.043,2.006c0.306,0 0.557,0.332 0.557,0.738c0,0.406 0.36,1.064 0.8,1.462c0.44,0.398 0.8,1.146 0.8,1.662c0,0.671 0.227,0.938 0.8,0.938c0.579,0 0.8,0.267 0.8,0.967c0,1.381 0.398,2.233 1.043,2.233c0.306,0 0.557,0.317 0.557,0.704c0,0.387 0.36,0.928 0.8,1.203c0.51,0.319 0.8,0.933 0.8,1.696c0,0.93 0.178,1.197 0.8,1.197c0.622,0 0.8,0.267 0.8,1.197c0,0.763 0.29,1.377 0.8,1.696c0.44,0.275 0.8,0.773 0.8,1.107c0,0.334 0.36,0.832 0.8,1.107c0.465,0.29 0.8,0.933 0.8,1.534c0,0.697 0.26,1.102 0.8,1.243c0.566,0.148 0.8,0.546 0.8,1.359c0,0.717 0.301,1.338 0.8,1.65c0.44,0.275 0.8,0.788 0.8,1.141c0,0.353 0.36,0.968 0.8,1.366c0.44,0.398 0.8,1.073 0.8,1.499c0,0.439 0.347,0.867 0.8,0.985c0.606,0.159 0.8,0.546 0.8,1.6c0,1.054 0.194,1.441 0.8,1.6c0.517,0.135 0.8,0.546 0.8,1.159c0,0.523 0.36,1.175 0.8,1.45c0.44,0.275 0.8,0.833 0.8,1.241c0,0.407 0.36,0.835 0.8,0.95c0.597,0.156 0.8,0.546 0.8,1.536c0,0.975 0.212,1.393 0.8,1.58c0.588,0.187 0.8,0.605 0.8,1.58c0,0.99 0.203,1.38 0.8,1.536c0.589,0.154 0.8,0.546 0.8,1.484c0,0.938 0.211,1.33 0.8,1.484c0.44,0.115 0.8,0.52 0.8,0.901c0,0.38 0.36,1.017 0.8,1.415c0.44,0.398 0.8,1.146 0.8,1.662c0,0.567 0.237,0.938 0.6,0.938c0.368,0 0.6,0.374 0.6,0.967c0,1.381 0.398,2.233 1.043,2.233c0.322,0 0.557,0.407 0.557,0.967c0,1.347 0.394,2.233 0.992,2.233c0.281,0 0.619,0.711 0.762,1.6c0.153,0.957 0.474,1.6 0.8,1.6c0.325,0 0.647,0.643 0.8,1.6c0.154,0.968 0.473,1.6 0.806,1.6c0.315,0 0.665,0.61 0.818,1.421c0.146,0.782 0.526,1.521 0.844,1.643c0.318,0.122 0.578,0.652 0.578,1.179c0,0.526 0.36,1.317 0.8,1.757c0.44,0.44 0.8,1.145 0.8,1.567c0,1.192 0.431,2.033 1.043,2.033c0.365,0 0.557,0.461 0.557,1.338c0,0.801 0.302,1.611 0.752,2.018c0.413,0.375 0.862,1.373 0.998,2.219c0.135,0.846 0.517,1.642 0.848,1.769c0.331,0.127 0.602,0.672 0.602,1.211c0,1.392 0.396,2.245 1.043,2.245c0.383,0 0.557,0.499 0.557,1.597c0,1.163 0.217,1.732 0.8,2.096c0.527,0.329 0.8,0.933 0.8,1.771c0,1.632 0.353,2.536 0.992,2.536c0.317,0 0.58,0.768 0.704,2.054c0.127,1.329 0.428,2.184 0.85,2.42c0.413,0.231 0.654,0.888 0.654,1.783c0,1.081 0.19,1.468 0.8,1.627c0.686,0.179 0.8,0.546 0.8,2.563c0,1.82 0.181,2.534 0.8,3.153c0.586,0.586 0.8,1.333 0.8,2.797c0,1.563 0.174,2.105 0.8,2.496c0.671,0.419 0.8,0.933 0.8,3.189c0,2.28 0.122,2.755 0.8,3.118c0.696,0.373 0.8,0.838 0.8,3.581c0,3.464 0.218,4.419 1.01,4.419c0.407,0 0.554,1.545 0.657,6.9c0.108,5.6 0.265,7.156 0.833,8.261c0.989,1.924 0.989,7.14 0,7.862c-0.592,0.432 -0.72,1.318 -0.832,5.744c-0.1,3.988 -0.257,5.233 -0.657,5.233c-0.745,0 -1.011,0.929 -1.011,3.536c0,1.838 -0.153,2.367 -0.8,2.771c-0.622,0.389 -0.8,0.933 -0.8,2.45c0,1.613 -0.138,1.986 -0.8,2.159c-0.629,0.164 -0.8,0.546 -0.8,1.785c0,1.067 -0.258,1.808 -0.8,2.299c-0.527,0.477 -0.8,1.232 -0.8,2.215c0,1.155 -0.18,1.539 -0.8,1.701c-0.613,0.16 -0.8,0.546 -0.8,1.647c0,1.17 -0.148,1.437 -0.8,1.437c-0.667,0 -0.8,0.267 -0.8,1.6c0,1.333 -0.133,1.6 -0.8,1.6c-0.517,0 -0.8,0.267 -0.8,0.753c0,0.417 -0.357,0.847 -0.8,0.963c-0.613,0.16 -0.8,0.546 -0.8,1.647c0,1.17 -0.148,1.437 -0.8,1.437c-0.533,0 -0.8,0.267 -0.8,0.8c0,0.44 -0.194,0.8 -0.431,0.8c-0.56,0 -2.769,2.209 -2.769,2.769c0,0.237 -0.249,0.431 -0.553,0.431c-0.305,0 -0.648,0.36 -0.763,0.8c-0.115,0.44 -0.496,0.8 -0.847,0.8c-0.35,0 -0.637,0.27 -0.637,0.6c0,0.33 -0.268,0.6 -0.597,0.6c-0.328,0 -0.821,0.36 -1.096,0.8c-0.275,0.44 -0.698,0.8 -0.941,0.8c-0.243,0 -0.768,0.36 -1.166,0.8c-0.398,0.44 -1.058,0.8 -1.466,0.8c-0.408,0 -1.05,0.36 -1.427,0.8c-0.377,0.44 -1.112,0.8 -1.633,0.8c-0.612,0 -1.023,0.284 -1.158,0.8c-0.169,0.647 -0.546,0.8 -1.963,0.8c-1.22,0 -1.996,0.243 -2.553,0.8c-0.495,0.495 -1.333,0.8 -2.2,0.8c-0.867,0 -1.705,0.305 -2.2,0.8c-0.513,0.513 -1.339,0.802 -2.3,0.805c-2.089,0.008 -3.3,0.39 -3.3,1.042c0,0.409 -0.623,0.553 -2.4,0.553c-1.867,0 -2.578,0.178 -3.2,0.8c-0.655,0.655 -1.333,0.8 -3.746,0.8c-2.34,0 -3.155,0.164 -3.963,0.8c-0.837,0.658 -1.623,0.8 -4.435,0.8c-3.165,0 -5.456,0.514 -5.456,1.225c0,0.163 -2.422,0.359 -5.383,0.436c-4.505,0.116 -5.468,0.251 -5.9,0.823c-0.454,0.601 -1.54,0.699 -8.85,0.8c-7.393,0.103 -8.391,0.195 -8.844,0.816c-0.471,0.645 -1.697,0.701 -15.467,0.717c-14.582,0.017 -18.378,0.25 -18.677,1.145c-0.275,0.826 -22.871,0.584 -24.518,-0.262c-1.211,-0.623 -2.746,-0.7 -13.961,-0.7c-11.215,0 -12.75,0.077 -13.961,0.7c-2.059,1.058 -23.121,1.058 -24.735,0c-0.964,-0.632 -2.641,-0.712 -17.26,-0.825c-14.643,-0.113 -16.24,-0.19 -16.685,-0.8c-0.43,-0.588 -1.558,-0.691 -8.799,-0.799c-7.249,-0.107 -8.369,-0.209 -8.801,-0.8c-0.41,-0.56 -1.374,-0.7 -5.627,-0.814c-4.069,-0.11 -5.285,-0.276 -5.873,-0.8c-0.559,-0.499 -1.736,-0.696 -4.785,-0.802c-3.172,-0.11 -4.148,-0.282 -4.524,-0.796c-0.361,-0.493 -1.3,-0.689 -3.814,-0.792c-2.467,-0.102 -3.466,-0.305 -3.834,-0.779c-0.331,-0.426 -1.341,-0.7 -3,-0.815c-1.763,-0.122 -2.713,-0.396 -3.218,-0.926c-0.496,-0.521 -1.274,-0.752 -2.536,-0.752c-1.216,0 -2.16,-0.266 -2.839,-0.8c-0.618,-0.487 -1.623,-0.8 -2.563,-0.8c-1.055,0 -1.546,-0.177 -1.546,-0.557c0,-0.72 -0.878,-1.043 -2.833,-1.043c-1.108,0 -1.567,-0.171 -1.567,-0.585c0,-0.343 -0.66,-0.762 -1.6,-1.015c-0.88,-0.237 -1.6,-0.6 -1.6,-0.808c0,-0.207 -0.489,-0.499 -1.087,-0.649c-0.597,-0.15 -1.441,-0.604 -1.875,-1.008c-0.434,-0.404 -1.025,-0.735 -1.313,-0.735c-0.289,0 -0.525,-0.258 -0.525,-0.573c0,-0.315 -0.343,-0.682 -0.763,-0.815c-0.42,-0.133 -0.864,-0.506 -0.987,-0.827c-0.124,-0.322 -0.48,-0.585 -0.791,-0.585c-0.311,0 -0.66,-0.36 -0.775,-0.8c-0.115,-0.44 -0.496,-0.8 -0.847,-0.8c-0.37,0 -0.637,-0.335 -0.637,-0.8c0,-0.465 -0.267,-0.8 -0.637,-0.8c-0.351,0 -0.732,-0.36 -0.847,-0.8c-0.116,-0.443 -0.546,-0.8 -0.963,-0.8c-0.486,0 -0.753,-0.283 -0.753,-0.8c0,-0.533 -0.267,-0.8 -0.8,-0.8c-0.652,0 -0.8,-0.267 -0.8,-1.437c0,-1.101 -0.187,-1.487 -0.8,-1.647c-0.443,-0.116 -0.8,-0.546 -0.8,-0.963c0,-0.486 -0.283,-0.753 -0.8,-0.753c-0.667,0 -0.8,-0.267 -0.8,-1.6c0,-1.333 -0.133,-1.6 -0.8,-1.6c-0.667,0 -0.8,-0.267 -0.8,-1.6c0,-1.333 -0.133,-1.6 -0.8,-1.6c-0.667,0 -0.8,-0.267 -0.8,-1.604c0,-1.109 -0.247,-1.815 -0.8,-2.289c-0.544,-0.466 -0.8,-1.18 -0.8,-2.233c0,-1.212 -0.174,-1.594 -0.8,-1.758c-0.673,-0.176 -0.8,-0.546 -0.8,-2.336c0,-1.775 -0.132,-2.168 -0.8,-2.38c-0.7,-0.222 -0.8,-0.605 -0.8,-3.064c0,-2.474 -0.096,-2.836 -0.8,-3.02c-0.748,-0.196 -0.8,-0.546 -0.8,-5.359c0,-4.717 -0.067,-5.192 -0.8,-5.65c-1.134,-0.708 -1.139,-5.472 -0.009,-7.963c0.685,-1.51 0.793,-2.635 0.8,-8.397c0.009,-6.313 0.05,-6.664 0.809,-6.863c0.726,-0.19 0.8,-0.546 0.8,-3.832c0,-3.214 0.09,-3.672 0.8,-4.052c0.68,-0.364 0.8,-0.838 0.8,-3.167c0,-2.403 0.098,-2.765 0.8,-2.949c0.68,-0.178 0.8,-0.546 0.8,-2.447c0,-1.704 0.191,-2.428 0.8,-3.037c0.609,-0.609 0.8,-1.333 0.8,-3.037c0,-1.901 0.12,-2.269 0.8,-2.447c0.601,-0.157 0.8,-0.546 0.8,-1.563c0,-0.82 0.315,-1.668 0.8,-2.153c0.557,-0.557 0.8,-1.333 0.8,-2.553c0,-1.417 0.153,-1.794 0.8,-1.963c0.629,-0.164 0.8,-0.546 0.8,-1.785c0,-1.067 0.258,-1.808 0.8,-2.299c0.527,-0.477 0.8,-1.232 0.8,-2.215c0,-1.155 0.18,-1.539 0.8,-1.701c0.583,-0.152 0.8,-0.546 0.8,-1.447c0,-0.704 0.345,-1.582 0.8,-2.037c0.443,-0.443 0.8,-1.333 0.8,-1.997c0,-0.763 0.29,-1.377 0.8,-1.696c0.562,-0.351 0.8,-0.933 0.8,-1.957c0,-1.12 0.185,-1.505 0.8,-1.666c0.606,-0.159 0.8,-0.546 0.8,-1.6c0,-1.054 0.194,-1.441 0.8,-1.6c0.599,-0.157 0.8,-0.546 0.8,-1.55c0,-0.908 0.258,-1.503 0.8,-1.841c0.499,-0.312 0.8,-0.933 0.8,-1.65c0,-0.813 0.234,-1.211 0.8,-1.359c0.606,-0.159 0.8,-0.546 0.8,-1.6c0,-1.054 0.194,-1.441 0.8,-1.6c0.606,-0.159 0.8,-0.546 0.8,-1.6c0,-1.054 0.194,-1.441 0.8,-1.6c0.606,-0.159 0.8,-0.546 0.8,-1.6c0,-1.054 0.194,-1.441 0.8,-1.6c0.613,-0.16 0.8,-0.546 0.8,-1.647c0,-1.17 0.148,-1.437 0.8,-1.437c0.622,0 0.8,-0.267 0.8,-1.197c0,-0.763 0.29,-1.377 0.8,-1.696c0.44,-0.275 0.8,-0.797 0.8,-1.16c0,-0.364 0.26,-0.761 0.578,-0.883c0.318,-0.122 0.698,-0.861 0.844,-1.643c0.147,-0.782 0.503,-1.421 0.791,-1.421c0.288,0 0.652,-0.585 0.809,-1.3c0.157,-0.715 0.621,-1.535 1.032,-1.823c0.441,-0.308 0.746,-1.004 0.746,-1.7c0,-0.743 0.207,-1.177 0.561,-1.177c0.308,0 0.762,-0.495 1.009,-1.1c0.675,-1.658 1.77,-3.462 2.314,-3.811c0.266,-0.171 0.601,-0.936 0.744,-1.7c0.152,-0.807 0.498,-1.389 0.827,-1.389c0.311,0 0.673,-0.54 0.805,-1.2c0.132,-0.66 0.377,-1.2 0.544,-1.2c0.168,0 0.604,-0.63 0.969,-1.4c0.366,-0.77 0.836,-1.4 1.046,-1.4c0.209,0 0.381,-0.609 0.381,-1.353c0,-1.017 0.199,-1.406 0.8,-1.563c0.516,-0.135 0.8,-0.546 0.8,-1.158c0,-0.522 0.36,-1.209 0.8,-1.526c0.44,-0.317 0.8,-0.876 0.8,-1.242c0,-0.365 0.36,-0.759 0.8,-0.874c0.613,-0.16 0.8,-0.546 0.8,-1.647c0,-1.17 0.148,-1.437 0.8,-1.437c0.608,0 0.8,-0.267 0.8,-1.112c0,-0.653 0.33,-1.349 0.8,-1.688c0.44,-0.317 0.8,-0.876 0.8,-1.242c0,-0.365 0.36,-0.759 0.8,-0.874c0.613,-0.16 0.8,-0.546 0.8,-1.647c0,-1.17 0.148,-1.437 0.8,-1.437c0.533,0 0.8,-0.267 0.8,-0.8c0,-0.44 0.36,-1.16 0.8,-1.6c0.44,-0.44 0.8,-1.139 0.8,-1.553c0,-0.417 0.357,-0.847 0.8,-0.963c0.578,-0.151 0.8,-0.546 0.8,-1.42c0,-0.859 0.232,-1.284 0.8,-1.464c0.44,-0.14 0.8,-0.574 0.8,-0.965c0,-0.391 0.36,-1.037 0.8,-1.435c0.44,-0.398 0.8,-1.125 0.8,-1.615c0,-0.555 0.302,-0.971 0.8,-1.101c0.574,-0.15 0.8,-0.546 0.8,-1.4c0,-0.854 0.226,-1.25 0.8,-1.4c0.44,-0.115 0.8,-0.496 0.8,-0.847c0,-0.35 0.36,-0.997 0.8,-1.437c0.44,-0.44 0.8,-1.139 0.8,-1.553c0,-0.417 0.357,-0.847 0.8,-0.963c0.606,-0.159 0.8,-0.546 0.8,-1.6c0,-1.054 0.194,-1.441 0.8,-1.6c0.453,-0.118 0.8,-0.546 0.8,-0.985c0,-0.426 0.36,-1.101 0.8,-1.499c0.44,-0.398 0.8,-1.013 0.8,-1.366c0,-0.353 0.36,-0.866 0.8,-1.141c0.499,-0.312 0.8,-0.933 0.8,-1.65c0,-0.813 0.234,-1.211 0.8,-1.359c0.54,-0.141 0.8,-0.546 0.8,-1.243c0,-0.601 0.335,-1.244 0.8,-1.534c0.44,-0.275 0.8,-0.726 0.8,-1.003c0,-0.277 0.36,-0.864 0.8,-1.304c0.44,-0.44 0.8,-1.229 0.8,-1.753c0,-0.617 0.282,-1.028 0.8,-1.163c0.613,-0.16 0.8,-0.546 0.8,-1.647c0,-1.17 0.148,-1.437 0.8,-1.437c0.667,0 0.8,-0.267 0.8,-1.6c0,-1.17 0.165,-1.6 0.613,-1.6c0.336,0 0.727,-0.315 0.868,-0.7c0.14,-0.385 0.585,-1.129 0.987,-1.654c0.403,-0.525 0.732,-1.27 0.732,-1.657c0,-0.387 0.26,-0.803 0.578,-0.925c0.318,-0.122 0.698,-0.861 0.844,-1.643c0.147,-0.782 0.503,-1.421 0.791,-1.421c0.288,0 0.649,-0.585 0.802,-1.3c0.153,-0.715 0.617,-1.622 1.032,-2.016c0.414,-0.393 0.753,-1.118 0.753,-1.611c0,-0.492 0.36,-1.203 0.8,-1.58c0.44,-0.377 0.8,-1.131 0.8,-1.675c0,-0.58 0.331,-1.167 0.8,-1.418c0.524,-0.28 0.8,-0.838 0.8,-1.614c0,-0.747 0.206,-1.186 0.557,-1.186c0.638,0 1.043,-0.85 1.043,-2.19c0,-0.508 0.27,-1.028 0.6,-1.155c0.371,-0.142 0.6,-0.751 0.6,-1.596c0,-1.029 0.197,-1.417 0.8,-1.575c0.606,-0.159 0.8,-0.546 0.8,-1.6c0,-1.054 0.194,-1.441 0.8,-1.6c0.611,-0.16 0.8,-0.546 0.8,-1.632c0,-1.014 0.23,-1.547 0.8,-1.852c0.635,-0.34 0.8,-0.838 0.8,-2.414c0,-1.719 0.107,-1.986 0.8,-1.986c0.667,0 0.8,-0.267 0.8,-1.6c0,-1.333 0.133,-1.6 0.8,-1.6c0.659,0 0.8,-0.267 0.8,-1.511c0,-1.016 0.262,-1.736 0.8,-2.196c0.575,-0.492 0.8,-1.18 0.8,-2.442c0,-1.421 0.153,-1.798 0.8,-1.967c0.667,-0.174 0.8,-0.546 0.8,-2.232c0,-1.614 0.162,-2.11 0.8,-2.452c0.638,-0.342 0.8,-0.838 0.8,-2.452c0,-1.686 0.133,-2.058 0.8,-2.232c0.683,-0.179 0.8,-0.546 0.8,-2.516c0,-1.97 0.117,-2.337 0.8,-2.516c0.704,-0.184 0.8,-0.546 0.8,-3c0,-2.454 0.096,-2.816 0.8,-3c0.709,-0.185 0.8,-0.546 0.8,-3.15c0,-2.508 0.118,-3.015 0.8,-3.441c0.707,-0.442 0.8,-0.933 0.8,-4.234c0,-3.227 0.109,-3.833 0.8,-4.459c0.712,-0.645 0.8,-1.232 0.8,-5.366c0,-4.208 0.075,-4.688 0.8,-5.141c0.749,-0.468 0.8,-0.933 0.8,-7.296c0,-5.543 0.103,-6.797 0.557,-6.797c0.985,0 1.043,-0.994 1.043,-17.833c0,-16.034 -0.026,-16.593 -0.8,-17.367c-0.711,-0.711 -0.8,-1.333 -0.8,-5.6c0,-4.267 -0.089,-4.889 -0.8,-5.6c-0.655,-0.655 -0.8,-1.333 -0.8,-3.738c0,-2.43 -0.138,-3.063 -0.8,-3.662c-0.61,-0.552 -0.8,-1.232 -0.8,-2.859c0,-1.701 -0.162,-2.236 -0.8,-2.634c-0.565,-0.353 -0.8,-0.933 -0.8,-1.976c0,-1.126 -0.19,-1.537 -0.8,-1.731c-0.591,-0.188 -0.8,-0.605 -0.8,-1.6c0,-0.995 -0.209,-1.412 -0.8,-1.6c-0.568,-0.18 -0.8,-0.605 -0.8,-1.464c0,-0.874 -0.222,-1.269 -0.8,-1.42c-0.443,-0.116 -0.8,-0.546 -0.8,-0.963c0,-0.486 -0.283,-0.753 -0.8,-0.753c-0.533,0 -0.8,-0.267 -0.8,-0.8c0,-0.533 -0.267,-0.8 -0.8,-0.8c-0.508,0 -0.8,-0.267 -0.8,-0.73c0,-0.784 -1.357,-2.194 -2.5,-2.598c-0.385,-0.136 -0.7,-0.502 -0.7,-0.813c0,-0.311 -0.36,-0.66 -0.8,-0.775c-0.44,-0.115 -0.8,-0.496 -0.8,-0.847c0,-0.37 -0.335,-0.637 -0.8,-0.637c-0.533,0 -0.8,-0.267 -0.8,-0.8c0,-0.533 -0.267,-0.8 -0.8,-0.8c-0.533,0 -0.8,-0.267 -0.8,-0.8c0,-0.533 -0.267,-0.8 -0.8,-0.8c-0.533,0 -0.8,-0.267 -0.8,-0.8c0,-0.44 -0.258,-0.8 -0.573,-0.8c-0.315,0 -0.687,-0.36 -0.827,-0.8c-0.14,-0.44 -0.602,-0.8 -1.027,-0.8c-0.427,0 -0.773,-0.274 -0.773,-0.613c0,-0.336 -0.301,-0.728 -0.669,-0.869c-0.369,-0.141 -0.999,-0.586 -1.4,-0.987c-0.402,-0.402 -1.07,-0.731 -1.484,-0.731c-0.417,0 -0.847,-0.357 -0.963,-0.8c-0.115,-0.44 -0.484,-0.8 -0.82,-0.8c-0.335,0 -0.724,-0.36 -0.864,-0.8c-0.367,-1.155 -4.174,-1.187 -4.474,-0.037" id="path0"/>
   <path fill-rule="evenodd" fill="#000000" d="m112.518155,11.163c-0.11,0.42 -0.543,0.853 -0.963,0.963c-0.42,0.109 -0.763,0.486 -0.763,0.837c0,0.35 -0.36,0.997 -0.8,1.437c-0.44,0.44 -0.8,1.16 -0.8,1.6c0,0.533 -0.267,0.8 -0.8,0.8c-0.497,0 -0.8,0.267 -0.8,0.704c0,0.387 -0.38,0.941 -0.844,1.231c-1.519,0.948 -0.374,4.065 1.493,4.065c0.684,0 0.951,0.224 0.951,0.8c0,0.533 0.267,0.8 0.8,0.8c0.465,0 0.8,0.267 0.8,0.637c0,0.351 0.354,0.73 0.787,0.844c0.432,0.113 0.895,0.546 1.027,0.962c0.132,0.416 0.491,0.757 0.799,0.757c0.307,0 0.752,0.36 0.987,0.8c0.235,0.44 0.742,0.8 1.126,0.8c0.383,0 0.957,0.36 1.274,0.8c0.317,0.44 0.897,0.8 1.288,0.8c0.445,0 0.712,0.3 0.712,0.8c0,0.533 0.267,0.8 0.8,0.8c0.533,0 0.8,0.267 0.8,0.8c0,0.533 0.267,0.8 0.8,0.8c0.533,0 0.8,0.267 0.8,0.8c0,0.533 0.267,0.8 0.8,0.8c0.533,0 0.8,0.267 0.8,0.8c0,0.533 0.267,0.8 0.8,0.8c0.533,0 0.8,0.267 0.8,0.8c0,0.533 0.267,0.8 0.8,0.8c0.5,0 0.8,0.267 0.8,0.712c0,0.391 0.36,0.971 0.8,1.288c0.44,0.317 0.8,1.004 0.8,1.526c0,0.612 0.284,1.023 0.8,1.158c0.606,0.159 0.8,0.546 0.8,1.6c0,1.054 0.194,1.441 0.8,1.6c0.677,0.177 0.8,0.546 0.8,2.4c0,1.854 0.123,2.223 0.8,2.4c0.72,0.188 0.8,0.546 0.8,3.567c0,2.862 0.118,3.458 0.8,4.042c0.727,0.623 0.8,1.18 0.8,6.142c0,4.851 0.089,5.57 0.8,6.474c1.144,1.455 1.236,21.31 0.108,23.53c-0.563,1.109 -0.719,2.765 -0.844,8.95c-0.131,6.452 -0.252,7.66 -0.809,8.067c-0.533,0.389 -0.68,1.415 -0.788,5.514c-0.118,4.478 -0.217,5.082 -0.9,5.447c-0.671,0.36 -0.767,0.873 -0.767,4.108c0,3.202 -0.107,3.789 -0.8,4.382c-0.656,0.562 -0.8,1.18 -0.8,3.427c0,2.234 -0.148,2.876 -0.8,3.466c-0.619,0.56 -0.8,1.232 -0.8,2.966c0,1.808 -0.155,2.338 -0.8,2.741c-0.626,0.391 -0.8,0.933 -0.8,2.496c0,1.434 -0.156,1.997 -0.553,1.997c-0.619,0 -1.033,1.194 -1.042,3.004c-0.003,0.766 -0.296,1.385 -0.805,1.703c-0.622,0.389 -0.8,0.933 -0.8,2.45c0,1.613 -0.138,1.986 -0.8,2.159c-0.68,0.178 -0.8,0.546 -0.8,2.447c0,1.97 -0.095,2.237 -0.8,2.237c-0.663,0 -0.8,0.267 -0.8,1.553c0,1.217 -0.173,1.599 -0.8,1.763c-0.583,0.152 -0.8,0.546 -0.8,1.447c0,0.704 -0.345,1.582 -0.8,2.037c-0.525,0.525 -0.8,1.333 -0.8,2.353c0,1.217 -0.173,1.599 -0.8,1.763c-0.609,0.159 -0.8,0.546 -0.8,1.62c0,1.059 -0.199,1.473 -0.8,1.664c-0.593,0.188 -0.8,0.605 -0.8,1.613c0,0.949 -0.241,1.488 -0.8,1.787c-0.513,0.274 -0.8,0.838 -0.8,1.567c0,0.803 -0.236,1.201 -0.8,1.349c-0.606,0.159 -0.8,0.546 -0.8,1.6c0,1.054 -0.194,1.441 -0.8,1.6c-0.606,0.159 -0.8,0.546 -0.8,1.6c0,1.054 -0.194,1.441 -0.8,1.6c-0.606,0.159 -0.8,0.546 -0.8,1.6c0,1.054 -0.194,1.441 -0.8,1.6c-0.606,0.159 -0.8,0.546 -0.8,1.6c0,1.054 -0.194,1.441 -0.8,1.6c-0.613,0.16 -0.8,0.546 -0.8,1.647c0,1.17 -0.148,1.437 -0.8,1.437c-0.533,0 -0.8,0.267 -0.8,0.8c0,0.44 -0.36,1.16 -0.8,1.6c-0.44,0.44 -0.8,1.141 -0.8,1.557c0,0.417 -0.26,0.857 -0.578,0.979c-0.318,0.122 -0.698,0.861 -0.844,1.643c-0.153,0.811 -0.503,1.421 -0.818,1.421c-0.331,0 -0.65,0.624 -0.801,1.565c-0.17,1.066 -0.491,1.628 -1.005,1.763c-0.479,0.125 -0.754,0.553 -0.754,1.173c0,0.536 -0.36,1.301 -0.8,1.699c-0.44,0.398 -0.8,0.947 -0.8,1.219c0,0.273 -0.247,0.59 -0.549,0.706c-0.301,0.116 -0.676,0.72 -0.832,1.343c-0.156,0.622 -0.629,1.454 -1.051,1.848c-0.423,0.393 -0.768,1.115 -0.768,1.603c0,0.489 -0.36,1.113 -0.8,1.388c-0.44,0.275 -0.8,0.749 -0.8,1.054c0,0.304 -0.26,0.653 -0.578,0.775c-0.318,0.122 -0.698,0.861 -0.844,1.643c-0.154,0.818 -0.503,1.421 -0.823,1.421c-0.368,0 -0.555,0.472 -0.555,1.4c0,1.133 -0.152,1.4 -0.8,1.4c-0.587,0 -0.8,0.267 -0.8,1c0,0.588 -0.23,1 -0.557,1c-0.603,0 -1.043,0.838 -1.043,1.986c0,0.396 -0.36,0.815 -0.8,0.93c-0.613,0.16 -0.8,0.546 -0.8,1.647c0,1.17 -0.148,1.437 -0.8,1.437c-0.529,0 -0.8,0.267 -0.8,0.786c0,0.432 -0.36,0.979 -0.8,1.214c-0.524,0.28 -0.8,0.838 -0.8,1.614c0,0.919 -0.18,1.186 -0.8,1.186c-0.667,0 -0.8,0.267 -0.8,1.6c0,1.333 -0.133,1.6 -0.8,1.6c-0.497,0 -0.8,0.267 -0.8,0.704c0,0.387 -0.36,0.928 -0.8,1.203c-0.499,0.312 -0.8,0.933 -0.8,1.65c0,0.813 -0.234,1.211 -0.8,1.359c-0.613,0.16 -0.8,0.546 -0.8,1.647c0,1.17 -0.148,1.437 -0.8,1.437c-0.533,0 -0.8,0.267 -0.8,0.8c0,0.44 -0.251,0.8 -0.557,0.8c-0.645,0 -1.043,0.852 -1.043,2.233c0,0.7 -0.221,0.967 -0.8,0.967c-0.608,0 -0.8,0.267 -0.8,1.112c0,0.653 -0.33,1.349 -0.8,1.688c-0.44,0.317 -0.8,0.876 -0.8,1.242c0,0.365 -0.36,0.759 -0.8,0.874c-0.578,0.151 -0.8,0.546 -0.8,1.42c0,0.859 -0.232,1.284 -0.8,1.464c-0.588,0.187 -0.8,0.605 -0.8,1.58c0,0.99 -0.203,1.38 -0.8,1.536c-0.479,0.125 -0.8,0.546 -0.8,1.047c0,0.466 -0.258,0.837 -0.582,0.837c-0.345,0 -0.686,0.554 -0.837,1.363c-0.163,0.869 -0.533,1.436 -1.019,1.563c-0.565,0.148 -0.762,0.558 -0.762,1.59c0,1.054 -0.194,1.441 -0.8,1.6c-0.44,0.115 -0.8,0.496 -0.8,0.847c0,0.35 -0.36,0.997 -0.8,1.437c-0.44,0.44 -0.8,1.117 -0.8,1.504c0,0.387 -0.36,0.928 -0.8,1.203c-0.499,0.312 -0.8,0.933 -0.8,1.65c0,0.813 -0.234,1.211 -0.8,1.359c-0.606,0.159 -0.8,0.546 -0.8,1.6c0,1.054 -0.194,1.441 -0.8,1.6c-0.44,0.115 -0.8,0.513 -0.8,0.883c0,0.371 -0.36,1.132 -0.8,1.692c-0.44,0.559 -0.8,1.243 -0.8,1.52c0,0.277 -0.26,0.603 -0.578,0.725c-0.318,0.122 -0.698,0.861 -0.844,1.643c-0.153,0.811 -0.503,1.421 -0.818,1.421c-0.333,0 -0.652,0.632 -0.806,1.6c-0.153,0.957 -0.475,1.6 -0.8,1.6c-0.326,0 -0.647,0.643 -0.8,1.6c-0.143,0.889 -0.481,1.6 -0.762,1.6c-0.598,0 -0.992,0.886 -0.992,2.233c0,0.56 -0.235,0.967 -0.557,0.967c-0.594,0 -1.043,0.834 -1.043,1.936c0,0.37 -0.36,0.896 -0.8,1.171c-0.5,0.312 -0.8,0.933 -0.8,1.654c0,0.656 -0.259,1.253 -0.6,1.384c-0.374,0.143 -0.6,0.753 -0.6,1.615c0,1.035 -0.203,1.45 -0.8,1.64c-0.601,0.191 -0.8,0.605 -0.8,1.664c0,1.074 -0.191,1.461 -0.8,1.62c-0.597,0.156 -0.8,0.546 -0.8,1.536c0,0.975 -0.212,1.393 -0.8,1.58c-0.593,0.188 -0.8,0.605 -0.8,1.613c0,0.949 -0.241,1.488 -0.8,1.787c-0.546,0.292 -0.8,0.838 -0.8,1.718c0,0.856 -0.269,1.457 -0.8,1.789c-0.602,0.376 -0.8,0.933 -0.8,2.25c0,1.413 -0.154,1.79 -0.8,1.959c-0.613,0.16 -0.8,0.546 -0.8,1.647c0,0.904 -0.297,1.734 -0.8,2.237c-0.525,0.525 -0.8,1.333 -0.8,2.353c0,1.217 -0.173,1.599 -0.8,1.763c-0.68,0.178 -0.8,0.546 -0.8,2.447c0,1.97 -0.095,2.237 -0.8,2.237c-0.668,0 -0.8,0.267 -0.8,1.617c0,1.064 -0.274,1.91 -0.8,2.475c-0.587,0.63 -0.8,1.412 -0.8,2.937c0,1.741 -0.13,2.112 -0.8,2.287c-0.69,0.18 -0.8,0.546 -0.8,2.647c0,1.816 -0.142,2.437 -0.557,2.437c-0.796,0 -1.043,0.908 -1.043,3.833c0,1.927 -0.139,2.567 -0.557,2.567c-0.826,0 -1.043,0.92 -1.043,4.419c0,2.743 -0.104,3.208 -0.8,3.581c-1.256,0.672 -1.256,41.308 0,42.093c0.647,0.404 0.8,0.933 0.8,2.771c0,2.636 0.265,3.536 1.043,3.536c0.41,0 0.557,0.592 0.557,2.237c0,1.901 0.12,2.269 0.8,2.447c0.641,0.168 0.8,0.546 0.8,1.901c0,1.183 0.24,1.908 0.8,2.415c0.505,0.457 0.8,1.232 0.8,2.099c0,1.039 0.196,1.427 0.8,1.585c0.627,0.164 0.8,0.546 0.8,1.763c0,1.286 0.137,1.553 0.8,1.553c0.652,0 0.8,0.267 0.8,1.437c0,1.101 0.187,1.487 0.8,1.647c0.606,0.159 0.8,0.546 0.8,1.6c0,1.054 0.194,1.441 0.8,1.6c0.443,0.116 0.8,0.546 0.8,0.963c0,0.486 0.283,0.753 0.8,0.753c0.652,0 0.8,0.267 0.8,1.437c0,1.101 0.187,1.487 0.8,1.647c0.443,0.116 0.8,0.546 0.8,0.963c0,0.486 0.283,0.753 0.8,0.753c0.533,0 0.8,0.267 0.8,0.8c0,0.44 0.36,1.16 0.8,1.6c0.44,0.44 0.8,1.07 0.8,1.4c0,0.33 0.274,0.6 0.61,0.6c0.335,0 0.781,0.45 0.99,1c0.209,0.55 0.634,1 0.943,1c0.31,0 0.658,0.36 0.773,0.8c0.115,0.44 0.496,0.8 0.847,0.8c0.35,0 0.637,0.258 0.637,0.573c0,0.315 0.391,0.697 0.869,0.849c0.478,0.152 1.232,0.614 1.676,1.027c0.443,0.413 1.021,0.751 1.284,0.751c0.263,0 0.572,0.36 0.687,0.8c0.125,0.479 0.546,0.8 1.047,0.8c0.46,0 0.837,0.251 0.837,0.557c0,0.638 0.849,1.043 2.186,1.043c0.584,0 0.997,0.292 1.13,0.8c0.141,0.541 0.546,0.8 1.247,0.8c0.57,0 1.397,0.36 1.837,0.8c0.444,0.444 1.333,0.8 2,0.8c0.752,0 1.2,0.206 1.2,0.55c0,0.548 1.648,1.05 3.45,1.05c0.565,0 0.95,0.236 0.95,0.582c0,0.361 0.568,0.676 1.5,0.831c1.632,0.271 1.814,0.337 3.3,1.197c0.55,0.318 1.79,0.581 2.756,0.584c1.152,0.004 1.919,0.229 2.23,0.654c0.331,0.453 1.339,0.711 3.344,0.854c1.907,0.137 2.87,0.372 2.87,0.702c0,0.597 1.789,0.996 4.464,0.996c1.174,0 2.381,0.273 3.001,0.679c0.714,0.469 2.164,0.733 4.667,0.853c2.334,0.112 3.826,0.369 4.178,0.721c0.403,0.403 1.831,0.547 5.422,0.547c4.442,0 4.92,0.071 5.375,0.8c0.471,0.753 0.933,0.8 7.896,0.8c6.864,0 7.455,0.058 8.197,0.8c1.263,1.263 158.411,1.263 159.493,0c0.638,-0.746 1.18,-0.8 7.993,-0.8c6.874,0 7.337,-0.047 7.807,-0.8c0.457,-0.732 0.933,-0.8 5.583,-0.8c3.904,0 5.159,-0.128 5.404,-0.552c0.226,-0.391 1.46,-0.601 4.197,-0.718c2.785,-0.118 4.081,-0.344 4.6,-0.799c0.475,-0.417 1.789,-0.699 3.836,-0.824c2.159,-0.131 3.261,-0.378 3.6,-0.809c0.318,-0.405 1.372,-0.678 3.041,-0.788c1.782,-0.118 2.702,-0.371 3.044,-0.839c0.317,-0.434 1.055,-0.671 2.086,-0.671c1.805,0 4.116,-0.696 4.116,-1.239c0,-0.199 0.405,-0.363 0.9,-0.366c1.483,-0.009 2.7,-0.456 2.7,-0.991c0,-0.311 0.767,-0.576 2.014,-0.696c1.128,-0.108 2.228,-0.463 2.5,-0.806c0.267,-0.337 1.161,-0.731 1.986,-0.876c0.926,-0.162 1.5,-0.485 1.5,-0.844c0,-0.349 0.388,-0.582 0.967,-0.582c1.381,0 2.233,-0.398 2.233,-1.043c0,-0.325 0.41,-0.557 0.984,-0.557c0.542,0 1.307,-0.331 1.7,-0.736c0.394,-0.405 1.031,-0.849 1.416,-0.987c0.385,-0.139 0.7,-0.528 0.7,-0.864c0,-0.337 0.32,-0.613 0.712,-0.613c0.391,0 0.971,-0.36 1.288,-0.8c0.317,-0.44 0.895,-0.8 1.285,-0.8c0.389,0 0.933,-0.36 1.208,-0.8c0.275,-0.44 0.732,-0.8 1.016,-0.8c0.284,0 0.628,-0.292 0.765,-0.648c0.136,-0.356 0.851,-1.25 1.587,-1.986c0.737,-0.737 1.339,-1.494 1.339,-1.683c0,-0.189 0.45,-0.766 1,-1.283c0.55,-0.517 1,-1.268 1,-1.67c0,-0.401 0.276,-0.73 0.613,-0.73c0.336,0 0.728,-0.315 0.869,-0.7c0.142,-0.385 0.489,-0.84 0.772,-1.011c0.282,-0.171 0.631,-0.936 0.774,-1.7c0.153,-0.811 0.497,-1.389 0.829,-1.389c0.312,0 0.684,-0.315 0.825,-0.7c0.142,-0.385 0.489,-0.84 0.772,-1.011c0.282,-0.171 0.631,-0.936 0.774,-1.7c0.148,-0.787 0.5,-1.389 0.812,-1.389c0.333,0 0.652,-0.632 0.806,-1.6c0.143,-0.889 0.481,-1.6 0.762,-1.6c0.598,0 0.992,-0.886 0.992,-2.233c0,-0.593 0.232,-0.967 0.6,-0.967c0.427,0 0.6,-0.435 0.6,-1.511c0,-1.016 0.262,-1.736 0.8,-2.196c0.58,-0.497 0.8,-1.18 0.8,-2.489c0,-1.537 0.118,-1.804 0.8,-1.804c0.709,0 0.8,-0.267 0.8,-2.353c0,-2.017 0.114,-2.384 0.8,-2.563c0.704,-0.184 0.8,-0.546 0.8,-3.02c0,-2.459 0.1,-2.842 0.8,-3.064c0.786,-0.25 0.8,-0.605 0.8,-21.013c0,-20.349 -0.016,-20.767 -0.8,-21.187c-0.708,-0.379 -0.8,-0.838 -0.8,-4c0,-3.162 -0.092,-3.621 -0.8,-4c-0.684,-0.366 -0.8,-0.838 -0.8,-3.252c0,-2.486 -0.095,-2.848 -0.8,-3.032c-0.687,-0.18 -0.8,-0.546 -0.8,-2.6c0,-2.054 -0.113,-2.42 -0.8,-2.6c-0.67,-0.175 -0.8,-0.546 -0.8,-2.286c0,-1.207 -0.246,-2.402 -0.587,-2.854c-0.323,-0.427 -0.593,-1.256 -0.6,-1.843c-0.018,-1.452 -0.397,-2.333 -1.005,-2.333c-0.317,0 -0.58,-0.771 -0.705,-2.067c-0.121,-1.263 -0.452,-2.253 -0.851,-2.544c-0.358,-0.263 -0.652,-1.018 -0.652,-1.679c0,-0.661 -0.36,-1.66 -0.8,-2.219c-0.44,-0.56 -0.802,-1.349 -0.805,-1.754c-0.011,-1.377 -0.487,-2.537 -1.042,-2.537c-0.346,0 -0.553,-0.442 -0.553,-1.181c0,-1.277 -0.742,-3.219 -1.229,-3.219c-0.165,0 -0.422,-0.72 -0.571,-1.6c-0.151,-0.896 -0.496,-1.6 -0.784,-1.6c-0.288,0 -0.623,-0.685 -0.763,-1.556c-0.136,-0.856 -0.52,-1.661 -0.851,-1.788c-0.331,-0.127 -0.602,-0.688 -0.602,-1.247c0,-0.559 -0.36,-1.325 -0.8,-1.702c-0.492,-0.421 -0.8,-1.18 -0.8,-1.969c0,-0.933 -0.219,-1.354 -0.8,-1.538c-0.591,-0.188 -0.8,-0.605 -0.8,-1.6c0,-0.995 -0.209,-1.412 -0.8,-1.6c-0.591,-0.188 -0.8,-0.605 -0.8,-1.6c0,-0.995 -0.209,-1.412 -0.8,-1.6c-0.568,-0.18 -0.8,-0.605 -0.8,-1.464c0,-0.874 -0.222,-1.269 -0.8,-1.42c-0.606,-0.159 -0.8,-0.546 -0.8,-1.6c0,-1.054 -0.194,-1.441 -0.8,-1.6c-0.606,-0.159 -0.8,-0.546 -0.8,-1.6c0,-1.054 -0.194,-1.441 -0.8,-1.6c-0.606,-0.159 -0.8,-0.546 -0.8,-1.6c0,-1.054 -0.194,-1.441 -0.8,-1.6c-0.566,-0.148 -0.8,-0.546 -0.8,-1.359c0,-0.717 -0.301,-1.338 -0.8,-1.65c-0.44,-0.275 -0.8,-0.816 -0.8,-1.203c0,-0.387 -0.36,-1.064 -0.8,-1.504c-0.44,-0.44 -0.8,-1.16 -0.8,-1.6c0,-0.533 -0.267,-0.8 -0.8,-0.8c-0.652,0 -0.8,-0.267 -0.8,-1.437c0,-1.101 -0.187,-1.487 -0.8,-1.647c-0.566,-0.148 -0.8,-0.546 -0.8,-1.359c0,-0.717 -0.301,-1.338 -0.8,-1.65c-0.44,-0.275 -0.8,-0.801 -0.8,-1.171c0,-1.102 -0.449,-1.936 -1.043,-1.936c-0.327,0 -0.557,-0.412 -0.557,-1c0,-0.733 -0.213,-1 -0.8,-1c-0.652,0 -0.8,-0.267 -0.8,-1.437c0,-1.101 -0.187,-1.487 -0.8,-1.647c-0.574,-0.15 -0.8,-0.546 -0.8,-1.4c0,-0.854 -0.226,-1.25 -0.8,-1.4c-0.518,-0.135 -0.8,-0.546 -0.8,-1.163c0,-0.686 -0.224,-0.953 -0.8,-0.953c-0.645,0 -0.8,-0.267 -0.8,-1.373c0,-1.022 -0.205,-1.438 -0.8,-1.627c-0.568,-0.18 -0.8,-0.605 -0.8,-1.464c0,-0.874 -0.222,-1.269 -0.8,-1.42c-0.44,-0.115 -0.8,-0.52 -0.8,-0.901c0,-0.38 -0.36,-1.017 -0.8,-1.415c-0.44,-0.398 -0.8,-1.146 -0.8,-1.662c0,-0.671 -0.227,-0.938 -0.8,-0.938c-0.652,0 -0.8,-0.267 -0.8,-1.437c0,-1.101 -0.187,-1.487 -0.8,-1.647c-0.443,-0.116 -0.8,-0.546 -0.8,-0.963c0,-0.414 -0.27,-0.753 -0.6,-0.753c-0.368,0 -0.6,-0.374 -0.6,-0.967c0,-1.351 -0.394,-2.233 -0.998,-2.233c-0.282,0 -0.631,-0.63 -0.776,-1.4c-0.144,-0.77 -0.439,-1.4 -0.654,-1.4c-0.216,0 -0.563,-0.45 -0.772,-1c-0.209,-0.55 -0.632,-1 -0.939,-1c-0.343,0 -0.658,-0.619 -0.815,-1.6c-0.154,-0.968 -0.473,-1.6 -0.806,-1.6c-0.313,0 -0.664,-0.605 -0.814,-1.4c-0.157,-0.838 -0.496,-1.4 -0.844,-1.4c-0.324,0 -0.582,-0.371 -0.582,-0.837c0,-0.501 -0.321,-0.922 -0.8,-1.047c-0.518,-0.135 -0.8,-0.546 -0.8,-1.163c0,-0.524 -0.355,-1.308 -0.79,-1.743c-0.434,-0.434 -0.907,-1.259 -1.051,-1.832c-0.144,-0.573 -0.509,-1.137 -0.81,-1.253c-0.302,-0.116 -0.549,-0.568 -0.549,-1.005c0,-0.458 -0.339,-0.883 -0.8,-1.004c-0.574,-0.15 -0.8,-0.546 -0.8,-1.4c0,-0.854 -0.226,-1.25 -0.8,-1.4c-0.518,-0.135 -0.8,-0.546 -0.8,-1.163c0,-0.524 -0.36,-1.313 -0.8,-1.753c-0.44,-0.44 -0.8,-1.087 -0.8,-1.437c0,-0.351 -0.36,-0.732 -0.8,-0.847c-0.564,-0.148 -0.8,-0.546 -0.8,-1.349c0,-0.729 -0.287,-1.293 -0.8,-1.567c-0.44,-0.235 -0.8,-0.767 -0.8,-1.181c0,-1.179 -0.434,-2.019 -1.043,-2.019c-0.306,0 -0.557,-0.317 -0.557,-0.704c0,-0.387 -0.36,-0.928 -0.8,-1.203c-0.51,-0.319 -0.8,-0.933 -0.8,-1.696c0,-0.93 -0.178,-1.197 -0.8,-1.197c-0.652,0 -0.8,-0.267 -0.8,-1.437c0,-1.101 -0.187,-1.487 -0.8,-1.647c-0.566,-0.148 -0.8,-0.546 -0.8,-1.359c0,-0.717 -0.301,-1.338 -0.8,-1.65c-0.44,-0.275 -0.8,-0.908 -0.8,-1.407c0,-0.499 -0.36,-1.216 -0.8,-1.593c-0.44,-0.377 -0.8,-1.005 -0.8,-1.396c0,-0.444 -0.3,-0.711 -0.8,-0.711c-0.667,0 -0.8,-0.267 -0.8,-1.6c0,-1.333 -0.133,-1.6 -0.8,-1.6c-0.652,0 -0.8,-0.267 -0.8,-1.437c0,-1.101 -0.187,-1.487 -0.8,-1.647c-0.606,-0.159 -0.8,-0.546 -0.8,-1.6c0,-1.054 -0.194,-1.441 -0.8,-1.6c-0.606,-0.159 -0.8,-0.546 -0.8,-1.6c0,-1.054 -0.194,-1.441 -0.8,-1.6c-0.606,-0.159 -0.8,-0.546 -0.8,-1.6c0,-1.054 -0.194,-1.441 -0.8,-1.6c-0.597,-0.156 -0.8,-0.546 -0.8,-1.536c0,-0.975 -0.212,-1.393 -0.8,-1.58c-0.591,-0.188 -0.8,-0.605 -0.8,-1.6c0,-0.995 -0.209,-1.412 -0.8,-1.6c-0.601,-0.191 -0.8,-0.605 -0.8,-1.664c0,-1.074 -0.191,-1.461 -0.8,-1.62c-0.646,-0.169 -0.8,-0.546 -0.8,-1.959c0,-1.317 -0.198,-1.874 -0.8,-2.25c-0.57,-0.356 -0.8,-0.933 -0.8,-2.003c0,-1.237 -0.142,-1.504 -0.8,-1.504c-0.667,0 -0.8,-0.267 -0.8,-1.6c0,-1.333 -0.133,-1.6 -0.8,-1.6c-0.702,0 -0.8,-0.267 -0.8,-2.18c0,-1.414 -0.191,-2.293 -0.543,-2.5c-0.299,-0.176 -0.638,-1.185 -0.754,-2.242c-0.115,-1.057 -0.48,-2.137 -0.809,-2.4c-0.33,-0.263 -0.699,-1.282 -0.821,-2.264c-0.121,-0.982 -0.502,-1.992 -0.846,-2.244c-0.345,-0.252 -0.627,-0.906 -0.627,-1.454c0,-1.23 -0.769,-3.516 -1.184,-3.516c-0.167,0 -0.405,-1.105 -0.528,-2.456c-0.122,-1.351 -0.452,-2.598 -0.734,-2.772c-0.294,-0.182 -0.635,-1.614 -0.804,-3.381c-0.164,-1.723 -0.547,-3.354 -0.875,-3.728c-0.382,-0.434 -0.644,-1.892 -0.76,-4.218c-0.128,-2.564 -0.347,-3.679 -0.786,-4c-0.462,-0.338 -0.658,-1.576 -0.816,-5.134c-0.149,-3.387 -0.388,-4.966 -0.86,-5.686c-0.495,-0.756 -0.655,-1.992 -0.663,-5.111c-0.013,-5.177 -0.657,-11.941 -1.187,-12.471c-0.615,-0.615 -0.543,-22.93 0.075,-23.136c0.536,-0.178 1.059,-4.508 1.097,-9.076c0.018,-2.182 0.201,-3.163 0.691,-3.704c0.466,-0.515 0.724,-1.728 0.857,-4.03c0.131,-2.246 0.377,-3.428 0.775,-3.719c0.321,-0.235 0.681,-1.297 0.801,-2.361c0.125,-1.105 0.536,-2.252 0.96,-2.676c0.407,-0.407 0.741,-1.191 0.741,-1.741c0,-0.597 0.229,-1 0.568,-1c0.313,0 0.689,-0.549 0.836,-1.219c0.147,-0.671 0.612,-1.434 1.032,-1.696c0.42,-0.263 0.764,-0.794 0.764,-1.181c0,-0.387 0.287,-0.704 0.637,-0.704c0.351,0 0.732,-0.36 0.847,-0.8c0.115,-0.44 0.475,-0.8 0.8,-0.8c0.325,0 0.685,-0.36 0.8,-0.8c0.115,-0.44 0.458,-0.8 0.763,-0.8c0.304,0 0.553,-0.36 0.553,-0.8c0,-0.533 0.267,-0.8 0.8,-0.8c0.533,0 0.8,-0.267 0.8,-0.8c0,-0.533 0.267,-0.8 0.8,-0.8c0.533,0 0.8,-0.267 0.8,-0.8c0,-0.511 0.267,-0.8 0.738,-0.8c0.406,0 1.064,-0.36 1.462,-0.8c0.398,-0.44 0.956,-0.8 1.239,-0.8c0.284,0 0.751,-0.327 1.038,-0.726c0.288,-0.4 0.838,-0.844 1.223,-0.988c0.385,-0.143 0.7,-0.537 0.7,-0.873c0,-0.346 0.348,-0.613 0.8,-0.613c0.533,0 0.8,-0.267 0.8,-0.8c0,-0.533 0.267,-0.8 0.8,-0.8c0.533,0 0.8,-0.267 0.8,-0.8c0,-0.582 0.267,-0.8 0.977,-0.8c1.924,0 3.193,-3.821 1.423,-4.284c-0.443,-0.116 -0.8,-0.546 -0.8,-0.963c0,-0.486 -0.283,-0.753 -0.8,-0.753c-0.583,0 -0.8,-0.267 -0.8,-0.984c0,-0.542 -0.331,-1.307 -0.736,-1.7c-0.405,-0.394 -0.849,-1.031 -0.987,-1.416c-0.139,-0.385 -0.507,-0.7 -0.818,-0.7c-0.311,0 -0.66,-0.36 -0.775,-0.8c-0.308,-1.18 -3.86,-1.18 -4.168,0c-0.116,0.443 -0.546,0.8 -0.963,0.8c-0.472,0 -0.753,0.282 -0.753,0.755c0,0.547 -0.387,0.829 -1.4,1.019c-0.77,0.144 -1.4,0.439 -1.4,0.654c0,0.216 -0.45,0.563 -1,0.772c-0.55,0.209 -1,0.655 -1,0.99c0,0.336 -0.287,0.61 -0.637,0.61c-0.351,0 -0.732,0.36 -0.847,0.8c-0.116,0.443 -0.546,0.8 -0.963,0.8c-0.486,0 -0.753,0.283 -0.753,0.8c0,0.533 -0.267,0.8 -0.8,0.8c-0.533,0 -0.8,0.267 -0.8,0.8c0,0.533 -0.267,0.8 -0.8,0.8c-0.533,0 -0.8,0.267 -0.8,0.8c0,0.533 -0.267,0.8 -0.8,0.8c-0.533,0 -0.8,0.267 -0.8,0.8c0,0.533 -0.267,0.8 -0.8,0.8c-0.533,0 -0.8,0.267 -0.8,0.8c0,0.44 -0.262,0.8 -0.582,0.8c-0.754,0 -2.618,1.864 -2.618,2.618c0,0.32 -0.36,0.582 -0.8,0.582c-0.533,0 -0.8,0.267 -0.8,0.8c0,0.533 -0.267,0.8 -0.8,0.8c-0.533,0 -0.8,0.267 -0.8,0.8c0,0.44 -0.251,0.8 -0.557,0.8c-0.607,0 -1.043,0.839 -1.043,2.006c0,0.407 -0.36,0.854 -0.8,0.994c-0.591,0.188 -0.8,0.605 -0.8,1.6c0,0.995 -0.209,1.412 -0.8,1.6c-0.595,0.189 -0.8,0.605 -0.8,1.627c0,0.84 -0.311,1.684 -0.8,2.173c-0.58,0.58 -0.8,1.333 -0.8,2.738c0,1.43 -0.21,2.128 -0.8,2.662c-0.67,0.607 -0.8,1.232 -0.8,3.862c0,1.726 -0.162,3.138 -0.361,3.138c-0.749,0 -1.239,2.662 -1.239,6.728c0,3.447 -0.127,4.349 -0.7,4.983c-1.047,1.156 -1.081,34.075 -0.036,34.839c0.563,0.412 0.685,1.508 0.8,7.201c0.118,5.836 0.228,6.782 0.836,7.226c0.593,0.433 0.7,1.182 0.7,4.913c0,3.796 0.11,4.542 0.8,5.419c0.659,0.838 0.8,1.623 0.8,4.454c0,2.904 0.124,3.561 0.8,4.237c0.636,0.636 0.8,1.333 0.8,3.397c0,2.163 0.133,2.68 0.8,3.096c0.647,0.404 0.8,0.933 0.8,2.771c0,2.636 0.265,3.536 1.043,3.536c0.408,0 0.557,0.584 0.557,2.186c0,1.776 0.15,2.266 0.8,2.614c0.638,0.342 0.8,0.838 0.8,2.452c0,1.686 0.133,2.058 0.8,2.232c0.647,0.169 0.8,0.546 0.8,1.963c0,1.22 0.243,1.996 0.8,2.553c0.495,0.495 0.8,1.333 0.8,2.2c0,0.867 0.305,1.705 0.8,2.2c0.503,0.503 0.8,1.333 0.8,2.237c0,1.101 0.187,1.487 0.8,1.647c0.627,0.164 0.8,0.546 0.8,1.763c0,1.286 0.137,1.553 0.8,1.553c0.682,0 0.8,0.267 0.8,1.804c0,1.309 0.22,1.992 0.8,2.489c0.506,0.433 0.8,1.18 0.8,2.033c0,1.012 0.2,1.401 0.8,1.558c0.606,0.159 0.8,0.546 0.8,1.6c0,1.054 0.194,1.441 0.8,1.6c0.606,0.159 0.8,0.546 0.8,1.6c0,1.054 0.194,1.441 0.8,1.6c0.606,0.159 0.8,0.546 0.8,1.6c0,1.054 0.194,1.441 0.8,1.6c0.597,0.156 0.8,0.546 0.8,1.536c0,0.975 0.212,1.393 0.8,1.58c0.591,0.188 0.8,0.605 0.8,1.6c0,0.995 0.209,1.412 0.8,1.6c0.591,0.188 0.8,0.605 0.8,1.6c0,0.995 0.209,1.412 0.8,1.6c0.588,0.187 0.8,0.605 0.8,1.58c0,0.99 0.203,1.38 0.8,1.536c0.589,0.154 0.8,0.546 0.8,1.484c0,0.938 0.211,1.33 0.8,1.484c0.519,0.136 0.8,0.546 0.8,1.167c0,0.526 0.36,1.265 0.8,1.642c0.44,0.377 0.8,0.984 0.8,1.349c0,0.366 0.36,0.759 0.8,0.874c0.613,0.16 0.8,0.546 0.8,1.647c0,1.17 0.148,1.437 0.8,1.437c0.649,0 0.8,0.267 0.8,1.413c0,0.842 0.226,1.499 0.561,1.627c0.308,0.119 0.678,0.842 0.822,1.609c0.144,0.766 0.521,1.493 0.839,1.615c0.318,0.122 0.578,0.444 0.578,0.717c0,0.272 0.339,0.802 0.754,1.177c0.415,0.376 0.86,1.214 0.99,1.862c0.13,0.649 0.49,1.18 0.801,1.18c0.33,0 0.676,0.584 0.829,1.4c0.144,0.77 0.432,1.4 0.639,1.4c0.207,0 0.66,0.585 1.007,1.3c1.66,3.423 1.961,3.9 2.452,3.9c0.297,0 0.528,0.439 0.528,1c0,0.55 0.342,1.342 0.761,1.761c0.418,0.418 0.875,1.122 1.015,1.563c0.14,0.442 0.518,1.022 0.839,1.289c0.322,0.267 0.585,0.811 0.585,1.209c0,0.398 0.36,0.838 0.8,0.978c0.568,0.18 0.8,0.605 0.8,1.464c0,0.874 0.222,1.269 0.8,1.42c0.44,0.115 0.8,0.524 0.8,0.909c0,0.384 0.36,1.157 0.8,1.716c0.44,0.56 0.8,1.292 0.8,1.627c0,0.336 0.36,0.724 0.8,0.864c0.44,0.14 0.8,0.587 0.8,0.994c0,1.167 0.436,2.006 1.043,2.006c0.306,0 0.557,0.332 0.557,0.738c0,0.406 0.36,1.064 0.8,1.462c0.44,0.398 0.8,1.146 0.8,1.662c0,0.671 0.227,0.938 0.8,0.938c0.579,0 0.8,0.267 0.8,0.967c0,1.381 0.398,2.233 1.043,2.233c0.306,0 0.557,0.317 0.557,0.704c0,0.387 0.36,0.928 0.8,1.203c0.51,0.319 0.8,0.933 0.8,1.696c0,0.93 0.178,1.197 0.8,1.197c0.622,0 0.8,0.267 0.8,1.197c0,0.763 0.29,1.377 0.8,1.696c0.44,0.275 0.8,0.773 0.8,1.107c0,0.334 0.36,0.832 0.8,1.107c0.465,0.29 0.8,0.933 0.8,1.534c0,0.697 0.26,1.102 0.8,1.243c0.566,0.148 0.8,0.546 0.8,1.359c0,0.717 0.301,1.338 0.8,1.65c0.44,0.275 0.8,0.788 0.8,1.141c0,0.353 0.36,0.968 0.8,1.366c0.44,0.398 0.8,1.073 0.8,1.499c0,0.439 0.347,0.867 0.8,0.985c0.606,0.159 0.8,0.546 0.8,1.6c0,1.054 0.194,1.441 0.8,1.6c0.517,0.135 0.8,0.546 0.8,1.159c0,0.523 0.36,1.175 0.8,1.45c0.44,0.275 0.8,0.833 0.8,1.241c0,0.407 0.36,0.835 0.8,0.95c0.597,0.156 0.8,0.546 0.8,1.536c0,0.975 0.212,1.393 0.8,1.58c0.588,0.187 0.8,0.605 0.8,1.58c0,0.99 0.203,1.38 0.8,1.536c0.589,0.154 0.8,0.546 0.8,1.484c0,0.938 0.211,1.33 0.8,1.484c0.44,0.115 0.8,0.52 0.8,0.901c0,0.38 0.36,1.017 0.8,1.415c0.44,0.398 0.8,1.146 0.8,1.662c0,0.567 0.237,0.938 0.6,0.938c0.368,0 0.6,0.374 0.6,0.967c0,1.381 0.398,2.233 1.043,2.233c0.322,0 0.557,0.407 0.557,0.967c0,1.347 0.394,2.233 0.992,2.233c0.281,0 0.619,0.711 0.762,1.6c0.153,0.957 0.474,1.6 0.8,1.6c0.325,0 0.647,0.643 0.8,1.6c0.154,0.968 0.473,1.6 0.806,1.6c0.315,0 0.665,0.61 0.818,1.421c0.146,0.782 0.526,1.521 0.844,1.643c0.318,0.122 0.578,0.652 0.578,1.179c0,0.526 0.36,1.317 0.8,1.757c0.44,0.44 0.8,1.145 0.8,1.567c0,1.192 0.431,2.033 1.043,2.033c0.365,0 0.557,0.461 0.557,1.338c0,0.801 0.302,1.611 0.752,2.018c0.413,0.375 0.862,1.373 0.998,2.219c0.135,0.846 0.517,1.642 0.848,1.769c0.331,0.127 0.602,0.672 0.602,1.211c0,1.392 0.396,2.245 1.043,2.245c0.383,0 0.557,0.499 0.557,1.597c0,1.163 0.217,1.732 0.8,2.096c0.527,0.329 0.8,0.933 0.8,1.771c0,1.632 0.353,2.536 0.992,2.536c0.317,0 0.58,0.768 0.704,2.054c0.127,1.329 0.428,2.184 0.85,2.42c0.413,0.231 0.654,0.888 0.654,1.783c0,1.081 0.19,1.468 0.8,1.627c0.686,0.179 0.8,0.546 0.8,2.563c0,1.82 0.181,2.534 0.8,3.153c0.586,0.586 0.8,1.333 0.8,2.797c0,1.563 0.174,2.105 0.8,2.496c0.671,0.419 0.8,0.933 0.8,3.189c0,2.28 0.122,2.755 0.8,3.118c0.696,0.373 0.8,0.838 0.8,3.581c0,3.464 0.218,4.419 1.01,4.419c0.407,0 0.554,1.545 0.657,6.9c0.108,5.6 0.265,7.156 0.833,8.261c0.989,1.924 0.989,7.14 0,7.862c-0.592,0.432 -0.72,1.318 -0.832,5.744c-0.1,3.988 -0.257,5.233 -0.657,5.233c-0.745,0 -1.011,0.929 -1.011,3.536c0,1.838 -0.153,2.367 -0.8,2.771c-0.622,0.389 -0.8,0.933 -0.8,2.45c0,1.613 -0.138,1.986 -0.8,2.159c-0.629,0.164 -0.8,0.546 -0.8,1.785c0,1.067 -0.258,1.808 -0.8,2.299c-0.527,0.477 -0.8,1.232 -0.8,2.215c0,1.155 -0.18,1.539 -0.8,1.701c-0.613,0.16 -0.8,0.546 -0.8,1.647c0,1.17 -0.148,1.437 -0.8,1.437c-0.667,0 -0.8,0.267 -0.8,1.6c0,1.333 -0.133,1.6 -0.8,1.6c-0.517,0 -0.8,0.267 -0.8,0.753c0,0.417 -0.357,0.847 -0.8,0.963c-0.613,0.16 -0.8,0.546 -0.8,1.647c0,1.17 -0.148,1.437 -0.8,1.437c-0.533,0 -0.8,0.267 -0.8,0.8c0,0.44 -0.194,0.8 -0.431,0.8c-0.56,0 -2.769,2.209 -2.769,2.769c0,0.237 -0.249,0.431 -0.553,0.431c-0.305,0 -0.648,0.36 -0.763,0.8c-0.115,0.44 -0.496,0.8 -0.847,0.8c-0.35,0 -0.637,0.27 -0.637,0.6c0,0.33 -0.268,0.6 -0.597,0.6c-0.328,0 -0.821,0.36 -1.096,0.8c-0.275,0.44 -0.698,0.8 -0.941,0.8c-0.243,0 -0.768,0.36 -1.166,0.8c-0.398,0.44 -1.058,0.8 -1.466,0.8c-0.408,0 -1.05,0.36 -1.427,0.8c-0.377,0.44 -1.112,0.8 -1.633,0.8c-0.612,0 -1.023,0.284 -1.158,0.8c-0.169,0.647 -0.546,0.8 -1.963,0.8c-1.22,0 -1.996,0.243 -2.553,0.8c-0.495,0.495 -1.333,0.8 -2.2,0.8c-0.867,0 -1.705,0.305 -2.2,0.8c-0.513,0.513 -1.339,0.802 -2.3,0.805c-2.089,0.008 -3.3,0.39 -3.3,1.042c0,0.409 -0.623,0.553 -2.4,0.553c-1.867,0 -2.578,0.178 -3.2,0.8c-0.655,0.655 -1.333,0.8 -3.746,0.8c-2.34,0 -3.155,0.164 -3.963,0.8c-0.837,0.658 -1.623,0.8 -4.435,0.8c-3.165,0 -5.456,0.514 -5.456,1.225c0,0.163 -2.422,0.359 -5.383,0.436c-4.505,0.116 -5.468,0.251 -5.9,0.823c-0.454,0.601 -1.54,0.699 -8.85,0.8c-7.393,0.103 -8.391,0.195 -8.844,0.816c-0.471,0.645 -1.697,0.701 -15.467,0.717c-14.582,0.017 -18.378,0.25 -18.677,1.145c-0.275,0.826 -22.871,0.584 -24.518,-0.262c-1.211,-0.623 -2.746,-0.7 -13.961,-0.7c-11.215,0 -12.75,0.077 -13.961,0.7c-2.059,1.058 -23.121,1.058 -24.735,0c-0.964,-0.632 -2.641,-0.712 -17.26,-0.825c-14.643,-0.113 -16.24,-0.19 -16.685,-0.8c-0.43,-0.588 -1.558,-0.691 -8.799,-0.799c-7.249,-0.107 -8.369,-0.209 -8.801,-0.8c-0.41,-0.56 -1.374,-0.7 -5.627,-0.814c-4.069,-0.11 -5.285,-0.276 -5.873,-0.8c-0.559,-0.499 -1.736,-0.696 -4.785,-0.802c-3.172,-0.11 -4.148,-0.282 -4.524,-0.796c-0.361,-0.493 -1.3,-0.689 -3.814,-0.792c-2.467,-0.102 -3.466,-0.305 -3.834,-0.779c-0.331,-0.426 -1.341,-0.7 -3,-0.815c-1.763,-0.122 -2.713,-0.396 -3.218,-0.926c-0.496,-0.521 -1.274,-0.752 -2.536,-0.752c-1.216,0 -2.16,-0.266 -2.839,-0.8c-0.618,-0.487 -1.623,-0.8 -2.563,-0.8c-1.055,0 -1.546,-0.177 -1.546,-0.557c0,-0.72 -0.878,-1.043 -2.833,-1.043c-1.108,0 -1.567,-0.171 -1.567,-0.585c0,-0.343 -0.66,-0.762 -1.6,-1.015c-0.88,-0.237 -1.6,-0.6 -1.6,-0.808c0,-0.207 -0.489,-0.499 -1.087,-0.649c-0.597,-0.15 -1.441,-0.604 -1.875,-1.008c-0.434,-0.404 -1.025,-0.735 -1.313,-0.735c-0.289,0 -0.525,-0.258 -0.525,-0.573c0,-0.315 -0.343,-0.682 -0.763,-0.815c-0.42,-0.133 -0.864,-0.506 -0.987,-0.827c-0.124,-0.322 -0.48,-0.585 -0.791,-0.585c-0.311,0 -0.66,-0.36 -0.775,-0.8c-0.115,-0.44 -0.496,-0.8 -0.847,-0.8c-0.37,0 -0.637,-0.335 -0.637,-0.8c0,-0.465 -0.267,-0.8 -0.637,-0.8c-0.351,0 -0.732,-0.36 -0.847,-0.8c-0.116,-0.443 -0.546,-0.8 -0.963,-0.8c-0.486,0 -0.753,-0.283 -0.753,-0.8c0,-0.533 -0.267,-0.8 -0.8,-0.8c-0.652,0 -0.8,-0.267 -0.8,-1.437c0,-1.101 -0.187,-1.487 -0.8,-1.647c-0.443,-0.116 -0.8,-0.546 -0.8,-0.963c0,-0.486 -0.283,-0.753 -0.8,-0.753c-0.667,0 -0.8,-0.267 -0.8,-1.6c0,-1.333 -0.133,-1.6 -0.8,-1.6c-0.667,0 -0.8,-0.267 -0.8,-1.6c0,-1.333 -0.133,-1.6 -0.8,-1.6c-0.667,0 -0.8,-0.267 -0.8,-1.604c0,-1.109 -0.247,-1.815 -0.8,-2.289c-0.544,-0.466 -0.8,-1.18 -0.8,-2.233c0,-1.212 -0.174,-1.594 -0.8,-1.758c-0.673,-0.176 -0.8,-0.546 -0.8,-2.336c0,-1.775 -0.132,-2.168 -0.8,-2.38c-0.7,-0.222 -0.8,-0.605 -0.8,-3.064c0,-2.474 -0.096,-2.836 -0.8,-3.02c-0.748,-0.196 -0.8,-0.546 -0.8,-5.359c0,-4.717 -0.067,-5.192 -0.8,-5.65c-1.134,-0.708 -1.139,-5.472 -0.009,-7.963c0.685,-1.51 0.793,-2.635 0.8,-8.397c0.009,-6.313 0.05,-6.664 0.809,-6.863c0.726,-0.19 0.8,-0.546 0.8,-3.832c0,-3.214 0.09,-3.672 0.8,-4.052c0.68,-0.364 0.8,-0.838 0.8,-3.167c0,-2.403 0.098,-2.765 0.8,-2.949c0.68,-0.178 0.8,-0.546 0.8,-2.447c0,-1.704 0.191,-2.428 0.8,-3.037c0.609,-0.609 0.8,-1.333 0.8,-3.037c0,-1.901 0.12,-2.269 0.8,-2.447c0.601,-0.157 0.8,-0.546 0.8,-1.563c0,-0.82 0.315,-1.668 0.8,-2.153c0.557,-0.557 0.8,-1.333 0.8,-2.553c0,-1.417 0.153,-1.794 0.8,-1.963c0.629,-0.164 0.8,-0.546 0.8,-1.785c0,-1.067 0.258,-1.808 0.8,-2.299c0.527,-0.477 0.8,-1.232 0.8,-2.215c0,-1.155 0.18,-1.539 0.8,-1.701c0.583,-0.152 0.8,-0.546 0.8,-1.447c0,-0.704 0.345,-1.582 0.8,-2.037c0.443,-0.443 0.8,-1.333 0.8,-1.997c0,-0.763 0.29,-1.377 0.8,-1.696c0.562,-0.351 0.8,-0.933 0.8,-1.957c0,-1.12 0.185,-1.505 0.8,-1.666c0.606,-0.159 0.8,-0.546 0.8,-1.6c0,-1.054 0.194,-1.441 0.8,-1.6c0.599,-0.157 0.8,-0.546 0.8,-1.55c0,-0.908 0.258,-1.503 0.8,-1.841c0.499,-0.312 0.8,-0.933 0.8,-1.65c0,-0.813 0.234,-1.211 0.8,-1.359c0.606,-0.159 0.8,-0.546 0.8,-1.6c0,-1.054 0.194,-1.441 0.8,-1.6c0.606,-0.159 0.8,-0.546 0.8,-1.6c0,-1.054 0.194,-1.441 0.8,-1.6c0.606,-0.159 0.8,-0.546 0.8,-1.6c0,-1.054 0.194,-1.441 0.8,-1.6c0.613,-0.16 0.8,-0.546 0.8,-1.647c0,-1.17 0.148,-1.437 0.8,-1.437c0.622,0 0.8,-0.267 0.8,-1.197c0,-0.763 0.29,-1.377 0.8,-1.696c0.44,-0.275 0.8,-0.797 0.8,-1.16c0,-0.364 0.26,-0.761 0.578,-0.883c0.318,-0.122 0.698,-0.861 0.844,-1.643c0.147,-0.782 0.503,-1.421 0.791,-1.421c0.288,0 0.652,-0.585 0.809,-1.3c0.157,-0.715 0.621,-1.535 1.032,-1.823c0.441,-0.308 0.746,-1.004 0.746,-1.7c0,-0.743 0.207,-1.177 0.561,-1.177c0.308,0 0.762,-0.495 1.009,-1.1c0.675,-1.658 1.77,-3.462 2.314,-3.811c0.266,-0.171 0.601,-0.936 0.744,-1.7c0.152,-0.807 0.498,-1.389 0.827,-1.389c0.311,0 0.673,-0.54 0.805,-1.2c0.132,-0.66 0.377,-1.2 0.544,-1.2c0.168,0 0.604,-0.63 0.969,-1.4c0.366,-0.77 0.836,-1.4 1.046,-1.4c0.209,0 0.381,-0.609 0.381,-1.353c0,-1.017 0.199,-1.406 0.8,-1.563c0.516,-0.135 0.8,-0.546 0.8,-1.158c0,-0.522 0.36,-1.209 0.8,-1.526c0.44,-0.317 0.8,-0.876 0.8,-1.242c0,-0.365 0.36,-0.759 0.8,-0.874c0.613,-0.16 0.8,-0.546 0.8,-1.647c0,-1.17 0.148,-1.437 0.8,-1.437c0.608,0 0.8,-0.267 0.8,-1.112c0,-0.653 0.33,-1.349 0.8,-1.688c0.44,-0.317 0.8,-0.876 0.8,-1.242c0,-0.365 0.36,-0.759 0.8,-0.874c0.613,-0.16 0.8,-0.546 0.8,-1.647c0,-1.17 0.148,-1.437 0.8,-1.437c0.533,0 0.8,-0.267 0.8,-0.8c0,-0.44 0.36,-1.16 0.8,-1.6c0.44,-0.44 0.8,-1.139 0.8,-1.553c0,-0.417 0.357,-0.847 0.8,-0.963c0.578,-0.151 0.8,-0.546 0.8,-1.42c0,-0.859 0.232,-1.284 0.8,-1.464c0.44,-0.14 0.8,-0.574 0.8,-0.965c0,-0.391 0.36,-1.037 0.8,-1.435c0.44,-0.398 0.8,-1.125 0.8,-1.615c0,-0.555 0.302,-0.971 0.8,-1.101c0.574,-0.15 0.8,-0.546 0.8,-1.4c0,-0.854 0.226,-1.25 0.8,-1.4c0.44,-0.115 0.8,-0.496 0.8,-0.847c0,-0.35 0.36,-0.997 0.8,-1.437c0.44,-0.44 0.8,-1.139 0.8,-1.553c0,-0.417 0.357,-0.847 0.8,-0.963c0.606,-0.159 0.8,-0.546 0.8,-1.6c0,-1.054 0.194,-1.441 0.8,-1.6c0.453,-0.118 0.8,-0.546 0.8,-0.985c0,-0.426 0.36,-1.101 0.8,-1.499c0.44,-0.398 0.8,-1.013 0.8,-1.366c0,-0.353 0.36,-0.866 0.8,-1.141c0.499,-0.312 0.8,-0.933 0.8,-1.65c0,-0.813 0.234,-1.211 0.8,-1.359c0.54,-0.141 0.8,-0.546 0.8,-1.243c0,-0.601 0.335,-1.244 0.8,-1.534c0.44,-0.275 0.8,-0.726 0.8,-1.003c0,-0.277 0.36,-0.864 0.8,-1.304c0.44,-0.44 0.8,-1.229 0.8,-1.753c0,-0.617 0.282,-1.028 0.8,-1.163c0.613,-0.16 0.8,-0.546 0.8,-1.647c0,-1.17 0.148,-1.437 0.8,-1.437c0.667,0 0.8,-0.267 0.8,-1.6c0,-1.17 0.165,-1.6 0.613,-1.6c0.336,0 0.727,-0.315 0.868,-0.7c0.14,-0.385 0.585,-1.129 0.987,-1.654c0.403,-0.525 0.732,-1.27 0.732,-1.657c0,-0.387 0.26,-0.803 0.578,-0.925c0.318,-0.122 0.698,-0.861 0.844,-1.643c0.147,-0.782 0.503,-1.421 0.791,-1.421c0.288,0 0.649,-0.585 0.802,-1.3c0.153,-0.715 0.617,-1.622 1.032,-2.016c0.414,-0.393 0.753,-1.118 0.753,-1.611c0,-0.492 0.36,-1.203 0.8,-1.58c0.44,-0.377 0.8,-1.131 0.8,-1.675c0,-0.58 0.331,-1.167 0.8,-1.418c0.524,-0.28 0.8,-0.838 0.8,-1.614c0,-0.747 0.206,-1.186 0.557,-1.186c0.638,0 1.043,-0.85 1.043,-2.19c0,-0.508 0.27,-1.028 0.6,-1.155c0.371,-0.142 0.6,-0.751 0.6,-1.596c0,-1.029 0.197,-1.417 0.8,-1.575c0.606,-0.159 0.8,-0.546 0.8,-1.6c0,-1.054 0.194,-1.441 0.8,-1.6c0.611,-0.16 0.8,-0.546 0.8,-1.632c0,-1.014 0.23,-1.547 0.8,-1.852c0.635,-0.34 0.8,-0.838 0.8,-2.414c0,-1.719 0.107,-1.986 0.8,-1.986c0.667,0 0.8,-0.267 0.8,-1.6c0,-1.333 0.133,-1.6 0.8,-1.6c0.659,0 0.8,-0.267 0.8,-1.511c0,-1.016 0.262,-1.736 0.8,-2.196c0.575,-0.492 0.8,-1.18 0.8,-2.442c0,-1.421 0.153,-1.798 0.8,-1.967c0.667,-0.174 0.8,-0.546 0.8,-2.232c0,-1.614 0.162,-2.11 0.8,-2.452c0.638,-0.342 0.8,-0.838 0.8,-2.452c0,-1.686 0.133,-2.058 0.8,-2.232c0.683,-0.179 0.8,-0.546 0.8,-2.516c0,-1.97 0.117,-2.337 0.8,-2.516c0.704,-0.184 0.8,-0.546 0.8,-3c0,-2.454 0.096,-2.816 0.8,-3c0.709,-0.185 0.8,-0.546 0.8,-3.15c0,-2.508 0.118,-3.015 0.8,-3.441c0.707,-0.442 0.8,-0.933 0.8,-4.234c0,-3.227 0.109,-3.833 0.8,-4.459c0.712,-0.645 0.8,-1.232 0.8,-5.366c0,-4.208 0.075,-4.688 0.8,-5.141c0.749,-0.468 0.8,-0.933 0.8,-7.296c0,-5.543 0.103,-6.797 0.557,-6.797c0.985,0 1.043,-0.994 1.043,-17.833c0,-16.034 -0.026,-16.593 -0.8,-17.367c-0.711,-0.711 -0.8,-1.333 -0.8,-5.6c0,-4.267 -0.089,-4.889 -0.8,-5.6c-0.655,-0.655 -0.8,-1.333 -0.8,-3.738c0,-2.43 -0.138,-3.063 -0.8,-3.662c-0.61,-0.552 -0.8,-1.232 -0.8,-2.859c0,-1.701 -0.162,-2.236 -0.8,-2.634c-0.565,-0.353 -0.8,-0.933 -0.8,-1.976c0,-1.126 -0.19,-1.537 -0.8,-1.731c-0.591,-0.188 -0.8,-0.605 -0.8,-1.6c0,-0.995 -0.209,-1.412 -0.8,-1.6c-0.568,-0.18 -0.8,-0.605 -0.8,-1.464c0,-0.874 -0.222,-1.269 -0.8,-1.42c-0.443,-0.116 -0.8,-0.546 -0.8,-0.963c0,-0.486 -0.283,-0.753 -0.8,-0.753c-0.533,0 -0.8,-0.267 -0.8,-0.8c0,-0.533 -0.267,-0.8 -0.8,-0.8c-0.508,0 -0.8,-0.267 -0.8,-0.73c0,-0.784 -1.357,-2.194 -2.5,-2.598c-0.385,-0.136 -0.7,-0.502 -0.7,-0.813c0,-0.311 -0.36,-0.66 -0.8,-0.775c-0.44,-0.115 -0.8,-0.496 -0.8,-0.847c0,-0.37 -0.335,-0.637 -0.8,-0.637c-0.533,0 -0.8,-0.267 -0.8,-0.8c0,-0.533 -0.267,-0.8 -0.8,-0.8c-0.533,0 -0.8,-0.267 -0.8,-0.8c0,-0.533 -0.267,-0.8 -0.8,-0.8c-0.533,0 -0.8,-0.267 -0.8,-0.8c0,-0.44 -0.258,-0.8 -0.573,-0.8c-0.315,0 -0.687,-0.36 -0.827,-0.8c-0.14,-0.44 -0.602,-0.8 -1.027,-0.8c-0.427,0 -0.773,-0.274 -0.773,-0.613c0,-0.336 -0.301,-0.728 -0.669,-0.869c-0.369,-0.141 -0.999,-0.586 -1.4,-0.987c-0.402,-0.402 -1.07,-0.731 -1.484,-0.731c-0.417,0 -0.847,-0.357 -0.963,-0.8c-0.115,-0.44 -0.484,-0.8 -0.82,-0.8c-0.335,0 -0.724,-0.36 -0.864,-0.8c-0.367,-1.155 -4.174,-1.187 -4.474,-0.037" id="path1"/>
  </g>
   <text stroke="null" xml:space="preserve" text-anchor="start" font-family="Helvetica, Arial, sans-serif" font-size="12" id="text_0" y="451.370627" x="74.706418" stroke-opacity="null" stroke-width="0" fill="none">    </text>
  <text style="cursor: move;" stroke="null" xml:space="preserve" text-anchor="start" font-family="Helvetica, Arial, sans-serif" font-size="12" id="text_1" y="422.743298" x="74.706418" stroke-opacity="null" stroke-width="0" fill="none">    </text>
  <text style="cursor: move;" stroke="null" xml:space="preserve" text-anchor="start" font-family="Helvetica, Arial, sans-serif" font-size="12" id="text_2" y="396.861055" x="74.706418" stroke-opacity="null" stroke-width="0" fill="none">    </text>
  <text style="cursor: move;" stroke="null" xml:space="preserve" text-anchor="start" font-family="Helvetica, Arial, sans-serif" font-size="12" id="text_3" y="372.155278" x="74.706418" stroke-opacity="null" stroke-width="0" fill="none">    </text>
  <text style="cursor: move;" stroke="null" xml:space="preserve" text-anchor="start" font-family="Helvetica, Arial, sans-serif" font-size="12" id="text_4" y="346.66519" x="74.706418" stroke-opacity="null" stroke-width="0" fill="none">    </text>
  <text style="cursor: move;" stroke="null" xml:space="preserve" text-anchor="start" font-family="Helvetica, Arial, sans-serif" font-size="12" id="text_5" y="322.743723" x="74.706418" stroke-opacity="null" stroke-width="0" fill="none">    </text>
  <text stroke="null" xml:space="preserve" text-anchor="start" font-family="Helvetica, Arial, sans-serif" font-size="12" id="text_6" y="301.567343" x="74.706418" stroke-opacity="null" stroke-width="0" fill="none">    </text>
  <text stroke="null" xml:space="preserve" text-anchor="start" font-family="Helvetica, Arial, sans-serif" font-size="12" id="text_7" y="280.390962" x="175.128293" stroke-opacity="null" stroke-width="0" fill="none"></text>
  <text stroke="null" xml:space="preserve" text-anchor="start" font-family="Helvetica, Arial, sans-serif" font-size="12" id="text_8" y="227.057856" x="152.568114" stroke-opacity="null" stroke-width="0" fill="none">  </text>
  <text stroke="null" xml:space="preserve" text-anchor="start" font-family="Helvetica, Arial, sans-serif" font-size="12" id="text_10" y="243.136219" x="121.42204" stroke-opacity="null" stroke-width="0" fill="none"> </text>
  <text stroke="null" xml:space="preserve" text-anchor="start" font-family="Helvetica, Arial, sans-serif" font-size="12" id="text_11" y="172.156128" x="152.568114" stroke-opacity="null" stroke-width="0" fill="none">  </text>
  <text stroke="null" xml:space="preserve" text-anchor="start" font-family="Helvetica, Arial, sans-serif" font-size="12" id="text_12" y="204.70501" x="172.741696" stroke-opacity="null" stroke-width="0" fill="none"></text>
  <text stroke="null" xml:space="preserve" text-anchor="start" font-family="Helvetica, Arial, sans-serif" font-size="12" id="text_13" y="188.626646" x="150.363636" stroke-opacity="null" stroke-width="0" fill="none"></text>
 </g>
</svg>
